<?xml version="1.0" encoding="UTF-8" standalone="no"?><svg xmlns="http://www.w3.org/2000/svg" xmlns:xlink="http://www.w3.org/1999/xlink" contentScriptType="application/ecmascript" contentStyleType="text/css" height="803px" preserveAspectRatio="none" style="width:1313px;height:803px;" version="1.1" viewBox="0 0 1313 803" width="1313px" zoomAndPan="magnify"><defs><filter height="300%" id="f1nbnje2c32gs0" width="300%" x="-1" y="-1"><feGaussianBlur result="blurOut" stdDeviation="2.0"/><feColorMatrix in="blurOut" result="blurOut2" type="matrix" values="0 0 0 0 0 0 0 0 0 0 0 0 0 0 0 0 0 0 .4 0"/><feOffset dx="4.0" dy="4.0" in="blurOut2" result="blurOut3"/><feBlend in="SourceGraphic" in2="blurOut3" mode="normal"/></filter></defs><g><text fill="#000000" font-family="sans-serif" font-size="18" lengthAdjust="spacingAndGlyphs" textLength="167" x="579" y="16.708">PartyScript Classes</text><!--cluster Counterparty--><polygon fill="#FFFFFF" filter="url(#f1nbnje2c32gs0)" points="22,54.9531,32,44.9531,1291,44.9531,1291,781.9531,1281,791.9531,22,791.9531,22,54.9531" style="stroke: #000000; stroke-width: 1.5;"/><line style="stroke: #000000; stroke-width: 1.5;" x1="1281" x2="1290" y1="54.9531" y2="45.9531"/><line style="stroke: #000000; stroke-width: 1.5;" x1="22" x2="1281" y1="54.9531" y2="54.9531"/><line style="stroke: #000000; stroke-width: 1.5;" x1="1281" x2="1281" y1="54.9531" y2="791.9531"/><text fill="#000000" font-family="sans-serif" font-size="14" font-weight="bold" lengthAdjust="spacingAndGlyphs" textLength="105" x="600" y="70.9482">Counterparty</text><!--cluster PartyScript--><polygon fill="#FFFFFF" filter="url(#f1nbnje2c32gs0)" points="46,172.9531,56,162.9531,1111,162.9531,1111,757.9531,1101,767.9531,46,767.9531,46,172.9531" style="stroke: #000000; stroke-width: 1.5;"/><line style="stroke: #000000; stroke-width: 1.5;" x1="1101" x2="1110" y1="172.9531" y2="163.9531"/><line style="stroke: #000000; stroke-width: 1.5;" x1="46" x2="1101" y1="172.9531" y2="172.9531"/><line style="stroke: #000000; stroke-width: 1.5;" x1="1101" x2="1101" y1="172.9531" y2="767.9531"/><text fill="#000000" font-family="sans-serif" font-size="14" font-weight="bold" lengthAdjust="spacingAndGlyphs" textLength="87" x="531" y="188.9482">PartyScript</text><!--cluster stack--><polygon fill="#FFFFFF" filter="url(#f1nbnje2c32gs0)" points="70,632.9531,80,622.9531,454,622.9531,454,717.9531,444,727.9531,70,727.9531,70,632.9531" style="stroke: #000000; stroke-width: 1.5;"/><line style="stroke: #000000; stroke-width: 1.5;" x1="444" x2="453" y1="632.9531" y2="623.9531"/><line style="stroke: #000000; stroke-width: 1.5;" x1="70" x2="444" y1="632.9531" y2="632.9531"/><line style="stroke: #000000; stroke-width: 1.5;" x1="444" x2="444" y1="632.9531" y2="727.9531"/><text fill="#000000" font-family="sans-serif" font-size="14" font-weight="bold" lengthAdjust="spacingAndGlyphs" textLength="42" x="237" y="648.9482">stack</text><!--cluster objects--><polygon fill="#FFFFFF" filter="url(#f1nbnje2c32gs0)" points="478,215.9531,488,205.9531,1087,205.9531,1087,733.9531,1077,743.9531,478,743.9531,478,215.9531" style="stroke: #000000; stroke-width: 1.5;"/><line style="stroke: #000000; stroke-width: 1.5;" x1="1077" x2="1086" y1="215.9531" y2="206.9531"/><line style="stroke: #000000; stroke-width: 1.5;" x1="478" x2="1077" y1="215.9531" y2="215.9531"/><line style="stroke: #000000; stroke-width: 1.5;" x1="1077" x2="1077" y1="215.9531" y2="743.9531"/><text fill="#000000" font-family="sans-serif" font-size="14" font-weight="bold" lengthAdjust="spacingAndGlyphs" textLength="58" x="749.5" y="231.9482">objects</text><!--class CounterpartyAsset--><rect fill="#FEFECE" filter="url(#f1nbnje2c32gs0)" height="60.8047" id="CounterpartyAsset" style="stroke: #A80036; stroke-width: 1.5;" width="149" x="1126.5" y="348.9531"/><ellipse cx="1141.5" cy="364.9531" fill="#ADD1B2" rx="11" ry="11" style="stroke: #A80036; stroke-width: 1.0;"/><path d="M1144.4688,370.5938 Q1143.8906,370.8906 1143.25,371.0391 Q1142.6094,371.1875 1141.9063,371.1875 Q1139.4063,371.1875 1138.0859,369.5391 Q1136.7656,367.8906 1136.7656,364.7656 Q1136.7656,361.6406 1138.0859,359.9844 Q1139.4063,358.3281 1141.9063,358.3281 Q1142.6094,358.3281 1143.2578,358.4844 Q1143.9063,358.6406 1144.4688,358.9375 L1144.4688,361.6563 Q1143.8438,361.0781 1143.25,360.8047 Q1142.6563,360.5313 1142.0313,360.5313 Q1140.6875,360.5313 1140,361.6016 Q1139.3125,362.6719 1139.3125,364.7656 Q1139.3125,366.8594 1140,367.9297 Q1140.6875,369 1142.0313,369 Q1142.6563,369 1143.25,368.7266 Q1143.8438,368.4531 1144.4688,367.875 L1144.4688,370.5938 Z "/><text fill="#000000" font-family="sans-serif" font-size="12" lengthAdjust="spacingAndGlyphs" textLength="117" x="1155.5" y="369.1074">CounterpartyAsset</text><line style="stroke: #A80036; stroke-width: 1.5;" x1="1127.5" x2="1274.5" y1="380.9531" y2="380.9531"/><ellipse cx="1137.5" cy="392.8555" fill="none" rx="3" ry="3" style="stroke: #038048; stroke-width: 1.0;"/><text fill="#000000" font-family="sans-serif" font-size="11" lengthAdjust="spacingAndGlyphs" textLength="94" x="1146.5" y="395.1636">owner : Address</text><line style="stroke: #A80036; stroke-width: 1.5;" x1="1127.5" x2="1274.5" y1="401.7578" y2="401.7578"/><!--class MessageParser--><rect fill="#FEFECE" filter="url(#f1nbnje2c32gs0)" height="66.7422" id="MessageParser" style="stroke: #A80036; stroke-width: 1.5;" width="129" x="475.5" y="79.9531"/><ellipse cx="490.5" cy="98.9219" fill="#ADD1B2" rx="11" ry="11" style="stroke: #A80036; stroke-width: 1.0;"/><path d="M493.4688,104.5625 Q492.8906,104.8594 492.25,105.0078 Q491.6094,105.1563 490.9063,105.1563 Q488.4063,105.1563 487.0859,103.5078 Q485.7656,101.8594 485.7656,98.7344 Q485.7656,95.6094 487.0859,93.9531 Q488.4063,92.2969 490.9063,92.2969 Q491.6094,92.2969 492.2578,92.4531 Q492.9063,92.6094 493.4688,92.9063 L493.4688,95.625 Q492.8438,95.0469 492.25,94.7734 Q491.6563,94.5 491.0313,94.5 Q489.6875,94.5 489,95.5703 Q488.3125,96.6406 488.3125,98.7344 Q488.3125,100.8281 489,101.8984 Q489.6875,102.9688 491.0313,102.9688 Q491.6563,102.9688 492.25,102.6953 Q492.8438,102.4219 493.4688,101.8438 L493.4688,104.5625 Z "/><text fill="#000000" font-family="sans-serif" font-size="12" font-style="italic" lengthAdjust="spacingAndGlyphs" textLength="72" x="517" y="96.0918">«singleton»</text><text fill="#000000" font-family="sans-serif" font-size="12" lengthAdjust="spacingAndGlyphs" textLength="97" x="504.5" y="110.0605">MessageParser</text><line style="stroke: #A80036; stroke-width: 1.5;" x1="476.5" x2="603.5" y1="117.8906" y2="117.8906"/><line style="stroke: #A80036; stroke-width: 1.5;" x1="476.5" x2="603.5" y1="125.8906" y2="125.8906"/><ellipse cx="486.5" cy="137.793" fill="#84BE84" rx="3" ry="3" style="stroke: #038048; stroke-width: 1.0;"/><text fill="#000000" font-family="sans-serif" font-size="11" lengthAdjust="spacingAndGlyphs" textLength="92" x="495.5" y="140.1011">parseMessage()</text><!--class DataStack--><rect fill="#FEFECE" filter="url(#f1nbnje2c32gs0)" height="53.9375" id="DataStack" style="stroke: #A80036; stroke-width: 1.5;" width="97" x="209.5" y="657.9531"/><ellipse cx="224.5" cy="676.9219" fill="#ADD1B2" rx="11" ry="11" style="stroke: #A80036; stroke-width: 1.0;"/><path d="M227.4688,682.5625 Q226.8906,682.8594 226.25,683.0078 Q225.6094,683.1563 224.9063,683.1563 Q222.4063,683.1563 221.0859,681.5078 Q219.7656,679.8594 219.7656,676.7344 Q219.7656,673.6094 221.0859,671.9531 Q222.4063,670.2969 224.9063,670.2969 Q225.6094,670.2969 226.2578,670.4531 Q226.9063,670.6094 227.4688,670.9063 L227.4688,673.625 Q226.8438,673.0469 226.25,672.7734 Q225.6563,672.5 225.0313,672.5 Q223.6875,672.5 223,673.5703 Q222.3125,674.6406 222.3125,676.7344 Q222.3125,678.8281 223,679.8984 Q223.6875,680.9688 225.0313,680.9688 Q225.6563,680.9688 226.25,680.6953 Q226.8438,680.4219 227.4688,679.8438 L227.4688,682.5625 Z "/><text fill="#000000" font-family="sans-serif" font-size="12" font-style="italic" lengthAdjust="spacingAndGlyphs" textLength="49" x="246.5" y="674.0918">«Stack»</text><text fill="#000000" font-family="sans-serif" font-size="12" lengthAdjust="spacingAndGlyphs" textLength="65" x="238.5" y="688.0605">DataStack</text><line style="stroke: #A80036; stroke-width: 1.5;" x1="210.5" x2="305.5" y1="695.8906" y2="695.8906"/><line style="stroke: #A80036; stroke-width: 1.5;" x1="210.5" x2="305.5" y1="703.8906" y2="703.8906"/><!--class ExecStack--><rect fill="#FEFECE" filter="url(#f1nbnje2c32gs0)" height="53.9375" id="ExecStack" style="stroke: #A80036; stroke-width: 1.5;" width="96" x="342" y="657.9531"/><ellipse cx="357" cy="676.9219" fill="#ADD1B2" rx="11" ry="11" style="stroke: #A80036; stroke-width: 1.0;"/><path d="M359.9688,682.5625 Q359.3906,682.8594 358.75,683.0078 Q358.1094,683.1563 357.4063,683.1563 Q354.9063,683.1563 353.5859,681.5078 Q352.2656,679.8594 352.2656,676.7344 Q352.2656,673.6094 353.5859,671.9531 Q354.9063,670.2969 357.4063,670.2969 Q358.1094,670.2969 358.7578,670.4531 Q359.4063,670.6094 359.9688,670.9063 L359.9688,673.625 Q359.3438,673.0469 358.75,672.7734 Q358.1563,672.5 357.5313,672.5 Q356.1875,672.5 355.5,673.5703 Q354.8125,674.6406 354.8125,676.7344 Q354.8125,678.8281 355.5,679.8984 Q356.1875,680.9688 357.5313,680.9688 Q358.1563,680.9688 358.75,680.6953 Q359.3438,680.4219 359.9688,679.8438 L359.9688,682.5625 Z "/><text fill="#000000" font-family="sans-serif" font-size="12" font-style="italic" lengthAdjust="spacingAndGlyphs" textLength="49" x="378.5" y="674.0918">«Stack»</text><text fill="#000000" font-family="sans-serif" font-size="12" lengthAdjust="spacingAndGlyphs" textLength="64" x="371" y="688.0605">ExecStack</text><line style="stroke: #A80036; stroke-width: 1.5;" x1="343" x2="437" y1="695.8906" y2="695.8906"/><line style="stroke: #A80036; stroke-width: 1.5;" x1="343" x2="437" y1="703.8906" y2="703.8906"/><!--class CallStack--><rect fill="#FEFECE" filter="url(#f1nbnje2c32gs0)" height="53.9375" id="CallStack" style="stroke: #A80036; stroke-width: 1.5;" width="89" x="85.5" y="657.9531"/><ellipse cx="100.5" cy="676.9219" fill="#ADD1B2" rx="11" ry="11" style="stroke: #A80036; stroke-width: 1.0;"/><path d="M103.4688,682.5625 Q102.8906,682.8594 102.25,683.0078 Q101.6094,683.1563 100.9063,683.1563 Q98.4063,683.1563 97.0859,681.5078 Q95.7656,679.8594 95.7656,676.7344 Q95.7656,673.6094 97.0859,671.9531 Q98.4063,670.2969 100.9063,670.2969 Q101.6094,670.2969 102.2578,670.4531 Q102.9063,670.6094 103.4688,670.9063 L103.4688,673.625 Q102.8438,673.0469 102.25,672.7734 Q101.6563,672.5 101.0313,672.5 Q99.6875,672.5 99,673.5703 Q98.3125,674.6406 98.3125,676.7344 Q98.3125,678.8281 99,679.8984 Q99.6875,680.9688 101.0313,680.9688 Q101.6563,680.9688 102.25,680.6953 Q102.8438,680.4219 103.4688,679.8438 L103.4688,682.5625 Z "/><text fill="#000000" font-family="sans-serif" font-size="12" font-style="italic" lengthAdjust="spacingAndGlyphs" textLength="49" x="118.5" y="674.0918">«Stack»</text><text fill="#000000" font-family="sans-serif" font-size="12" lengthAdjust="spacingAndGlyphs" textLength="57" x="114.5" y="688.0605">CallStack</text><line style="stroke: #A80036; stroke-width: 1.5;" x1="86.5" x2="173.5" y1="695.8906" y2="695.8906"/><line style="stroke: #A80036; stroke-width: 1.5;" x1="86.5" x2="173.5" y1="703.8906" y2="703.8906"/><!--class Environment--><rect fill="#FEFECE" filter="url(#f1nbnje2c32gs0)" height="60.8047" id="Environment" style="stroke: #A80036; stroke-width: 1.5;" width="110" x="494" y="348.9531"/><ellipse cx="509" cy="364.9531" fill="#ADD1B2" rx="11" ry="11" style="stroke: #A80036; stroke-width: 1.0;"/><path d="M511.9688,370.5938 Q511.3906,370.8906 510.75,371.0391 Q510.1094,371.1875 509.4063,371.1875 Q506.9063,371.1875 505.5859,369.5391 Q504.2656,367.8906 504.2656,364.7656 Q504.2656,361.6406 505.5859,359.9844 Q506.9063,358.3281 509.4063,358.3281 Q510.1094,358.3281 510.7578,358.4844 Q511.4063,358.6406 511.9688,358.9375 L511.9688,361.6563 Q511.3438,361.0781 510.75,360.8047 Q510.1563,360.5313 509.5313,360.5313 Q508.1875,360.5313 507.5,361.6016 Q506.8125,362.6719 506.8125,364.7656 Q506.8125,366.8594 507.5,367.9297 Q508.1875,369 509.5313,369 Q510.1563,369 510.75,368.7266 Q511.3438,368.4531 511.9688,367.875 L511.9688,370.5938 Z "/><text fill="#000000" font-family="sans-serif" font-size="12" lengthAdjust="spacingAndGlyphs" textLength="78" x="523" y="369.1074">Environment</text><line style="stroke: #A80036; stroke-width: 1.5;" x1="495" x2="603" y1="380.9531" y2="380.9531"/><line style="stroke: #A80036; stroke-width: 1.5;" x1="495" x2="603" y1="388.9531" y2="388.9531"/><ellipse cx="505" cy="400.8555" fill="#84BE84" rx="3" ry="3" style="stroke: #038048; stroke-width: 1.0;"/><text fill="#000000" font-family="sans-serif" font-size="11" lengthAdjust="spacingAndGlyphs" textLength="35" x="514" y="403.1636">scan()</text><!--class Scriptlet--><rect fill="#FEFECE" filter="url(#f1nbnje2c32gs0)" height="86.4141" id="Scriptlet" style="stroke: #A80036; stroke-width: 1.5;" width="147" x="923.5" y="641.9531"/><ellipse cx="966.85" cy="657.9531" fill="#ADD1B2" rx="11" ry="11" style="stroke: #A80036; stroke-width: 1.0;"/><path d="M969.8188,663.5938 Q969.2406,663.8906 968.6,664.0391 Q967.9594,664.1875 967.2563,664.1875 Q964.7563,664.1875 963.4359,662.5391 Q962.1156,660.8906 962.1156,657.7656 Q962.1156,654.6406 963.4359,652.9844 Q964.7563,651.3281 967.2563,651.3281 Q967.9594,651.3281 968.6078,651.4844 Q969.2563,651.6406 969.8188,651.9375 L969.8188,654.6563 Q969.1938,654.0781 968.6,653.8047 Q968.0063,653.5313 967.3813,653.5313 Q966.0375,653.5313 965.35,654.6016 Q964.6625,655.6719 964.6625,657.7656 Q964.6625,659.8594 965.35,660.9297 Q966.0375,662 967.3813,662 Q968.0063,662 968.6,661.7266 Q969.1938,661.4531 969.8188,660.875 L969.8188,663.5938 Z "/><text fill="#000000" font-family="sans-serif" font-size="12" lengthAdjust="spacingAndGlyphs" textLength="52" x="987.15" y="662.1074">Scriptlet</text><line style="stroke: #A80036; stroke-width: 1.5;" x1="924.5" x2="1069.5" y1="673.9531" y2="673.9531"/><rect fill="none" height="6" style="stroke: #C82930; stroke-width: 1.0;" width="6" x="931.5" y="682.8555"/><text fill="#000000" font-family="sans-serif" font-size="11" lengthAdjust="spacingAndGlyphs" textLength="73" x="943.5" y="688.1636">data : Binary</text><line style="stroke: #A80036; stroke-width: 1.5;" x1="924.5" x2="1069.5" y1="694.7578" y2="694.7578"/><ellipse cx="934.5" cy="706.6602" fill="#84BE84" rx="3" ry="3" style="stroke: #038048; stroke-width: 1.0;"/><text fill="#000000" font-family="sans-serif" font-size="11" lengthAdjust="spacingAndGlyphs" textLength="104" x="943.5" y="708.9683">new(data : Binary)</text><ellipse cx="934.5" cy="719.4648" fill="#84BE84" rx="3" ry="3" style="stroke: #038048; stroke-width: 1.0;"/><text fill="#000000" font-family="sans-serif" font-size="11" lengthAdjust="spacingAndGlyphs" textLength="121" x="943.5" y="721.7729">getScriptlet() : Binary</text><!--class PartyScriptAsset--><rect fill="#FEFECE" filter="url(#f1nbnje2c32gs0)" height="60.8047" id="PartyScriptAsset" style="stroke: #A80036; stroke-width: 1.5;" width="144" x="927" y="495.4531"/><ellipse cx="946.05" cy="511.4531" fill="#ADD1B2" rx="11" ry="11" style="stroke: #A80036; stroke-width: 1.0;"/><path d="M949.0188,517.0938 Q948.4406,517.3906 947.8,517.5391 Q947.1594,517.6875 946.4563,517.6875 Q943.9563,517.6875 942.6359,516.0391 Q941.3156,514.3906 941.3156,511.2656 Q941.3156,508.1406 942.6359,506.4844 Q943.9563,504.8281 946.4563,504.8281 Q947.1594,504.8281 947.8078,504.9844 Q948.4563,505.1406 949.0188,505.4375 L949.0188,508.1563 Q948.3938,507.5781 947.8,507.3047 Q947.2063,507.0313 946.5813,507.0313 Q945.2375,507.0313 944.55,508.1016 Q943.8625,509.1719 943.8625,511.2656 Q943.8625,513.3594 944.55,514.4297 Q945.2375,515.5 946.5813,515.5 Q947.2063,515.5 947.8,515.2266 Q948.3938,514.9531 949.0188,514.375 L949.0188,517.0938 Z "/><text fill="#000000" font-family="sans-serif" font-size="12" lengthAdjust="spacingAndGlyphs" textLength="103" x="960.95" y="515.6074">PartyScriptAsset</text><line style="stroke: #A80036; stroke-width: 1.5;" x1="928" x2="1070" y1="527.4531" y2="527.4531"/><line style="stroke: #A80036; stroke-width: 1.5;" x1="928" x2="1070" y1="535.4531" y2="535.4531"/><text fill="#000000" font-family="sans-serif" font-size="11" lengthAdjust="spacingAndGlyphs" textLength="132" x="933" y="549.6636">getScriptlet() : Scriptlet</text><!--class Engine--><rect fill="#FEFECE" filter="url(#f1nbnje2c32gs0)" height="48" id="Engine" style="stroke: #A80036; stroke-width: 1.5;" width="75" x="502.5" y="240.9531"/><ellipse cx="517.5" cy="256.9531" fill="#ADD1B2" rx="11" ry="11" style="stroke: #A80036; stroke-width: 1.0;"/><path d="M520.4688,262.5938 Q519.8906,262.8906 519.25,263.0391 Q518.6094,263.1875 517.9063,263.1875 Q515.4063,263.1875 514.0859,261.5391 Q512.7656,259.8906 512.7656,256.7656 Q512.7656,253.6406 514.0859,251.9844 Q515.4063,250.3281 517.9063,250.3281 Q518.6094,250.3281 519.2578,250.4844 Q519.9063,250.6406 520.4688,250.9375 L520.4688,253.6563 Q519.8438,253.0781 519.25,252.8047 Q518.6563,252.5313 518.0313,252.5313 Q516.6875,252.5313 516,253.6016 Q515.3125,254.6719 515.3125,256.7656 Q515.3125,258.8594 516,259.9297 Q516.6875,261 518.0313,261 Q518.6563,261 519.25,260.7266 Q519.8438,260.4531 520.4688,259.875 L520.4688,262.5938 Z "/><text fill="#000000" font-family="sans-serif" font-size="12" lengthAdjust="spacingAndGlyphs" textLength="43" x="531.5" y="261.1074">Engine</text><line style="stroke: #A80036; stroke-width: 1.5;" x1="503.5" x2="576.5" y1="272.9531" y2="272.9531"/><line style="stroke: #A80036; stroke-width: 1.5;" x1="503.5" x2="576.5" y1="280.9531" y2="280.9531"/><!--class Scanner--><rect fill="#FEFECE" filter="url(#f1nbnje2c32gs0)" height="112.0234" id="Scanner" style="stroke: #A80036; stroke-width: 1.5;" width="398" x="494" y="469.9531"/><ellipse cx="662.75" cy="485.9531" fill="#ADD1B2" rx="11" ry="11" style="stroke: #A80036; stroke-width: 1.0;"/><path d="M665.7188,491.5938 Q665.1406,491.8906 664.5,492.0391 Q663.8594,492.1875 663.1563,492.1875 Q660.6563,492.1875 659.3359,490.5391 Q658.0156,488.8906 658.0156,485.7656 Q658.0156,482.6406 659.3359,480.9844 Q660.6563,479.3281 663.1563,479.3281 Q663.8594,479.3281 664.5078,479.4844 Q665.1563,479.6406 665.7188,479.9375 L665.7188,482.6563 Q665.0938,482.0781 664.5,481.8047 Q663.9063,481.5313 663.2813,481.5313 Q661.9375,481.5313 661.25,482.6016 Q660.5625,483.6719 660.5625,485.7656 Q660.5625,487.8594 661.25,488.9297 Q661.9375,490 663.2813,490 Q663.9063,490 664.5,489.7266 Q665.0938,489.4531 665.7188,488.875 L665.7188,491.5938 Z "/><text fill="#000000" font-family="sans-serif" font-size="12" lengthAdjust="spacingAndGlyphs" textLength="52" x="683.25" y="490.1074">Scanner</text><line style="stroke: #A80036; stroke-width: 1.5;" x1="495" x2="891" y1="501.9531" y2="501.9531"/><rect fill="none" height="6" style="stroke: #C82930; stroke-width: 1.0;" width="6" x="502" y="510.8555"/><text fill="#000000" font-family="sans-serif" font-size="11" lengthAdjust="spacingAndGlyphs" textLength="109" x="514" y="516.1636">accepted : Boolean</text><rect fill="none" height="6" style="stroke: #C82930; stroke-width: 1.0;" width="6" x="502" y="523.6602"/><text fill="#000000" font-family="sans-serif" font-size="11" lengthAdjust="spacingAndGlyphs" textLength="134" x="514" y="528.9683">asset: PartyScriptAsset</text><line style="stroke: #A80036; stroke-width: 1.5;" x1="495" x2="891" y1="535.5625" y2="535.5625"/><ellipse cx="505" cy="547.4648" fill="#84BE84" rx="3" ry="3" style="stroke: #038048; stroke-width: 1.0;"/><text fill="#000000" font-family="sans-serif" font-size="11" lengthAdjust="spacingAndGlyphs" textLength="372" x="514" y="549.7729">new(asset: PartyScriptAsset, dataStack: Stack, execStack: Stack)</text><ellipse cx="505" cy="560.2695" fill="#84BE84" rx="3" ry="3" style="stroke: #038048; stroke-width: 1.0;"/><text fill="#000000" font-family="sans-serif" font-size="11" lengthAdjust="spacingAndGlyphs" textLength="35" x="514" y="562.5776">scan()</text><ellipse cx="505" cy="573.0742" fill="#84BE84" rx="3" ry="3" style="stroke: #038048; stroke-width: 1.0;"/><text fill="#000000" font-family="sans-serif" font-size="11" lengthAdjust="spacingAndGlyphs" textLength="127" x="514" y="575.3823">isAccepted() : Boolean</text><!--link CallStack to Environment--><path d="M153.791,647.0361 C185.77,600.0411 246.783,519.0711 317,469.9531 C371.477,431.8451 444.367,407.1971 493.803,393.6061 " fill="none" id="CallStack-Environment" style="stroke: #A80036; stroke-width: 1.0;"/><polygon fill="#A80036" points="146.485,657.9311,153.1491,655.1761,153.1691,647.965,146.505,650.7201,146.485,657.9311" style="stroke: #A80036; stroke-width: 1.0;"/><text fill="#000000" font-family="sans-serif" font-size="13" lengthAdjust="spacingAndGlyphs" textLength="8" x="141.3722" y="647.0374">1</text><text fill="#000000" font-family="sans-serif" font-size="13" lengthAdjust="spacingAndGlyphs" textLength="24" x="462.0333" y="391.4612">0..n</text><!--link CounterpartyAsset to PartyScriptAsset--><path d="M1143.23,421.7771 C1110.37,445.2851 1069.98,474.1771 1040.31,495.4021 " fill="none" id="CounterpartyAsset-PartyScriptAsset" style="stroke: #A80036; stroke-width: 1.0;"/><polygon fill="none" points="1139.3,415.9861,1159.63,410.0431,1147.44,427.3731,1139.3,415.9861" style="stroke: #A80036; stroke-width: 1.0;"/><!--link PartyScriptAsset to Scriptlet--><path d="M998.455,569.7131 C998.17,592.1291 997.821,619.4901 997.537,641.8141 " fill="none" id="PartyScriptAsset-Scriptlet" style="stroke: #A80036; stroke-width: 1.0;"/><polygon fill="#A80036" points="998.624,556.4831,994.5478,562.4317,998.471,568.4822,1002.5472,562.5336,998.624,556.4831" style="stroke: #A80036; stroke-width: 1.0;"/><text fill="#000000" font-family="sans-serif" font-size="13" lengthAdjust="spacingAndGlyphs" textLength="24" x="972.0715" y="576.4275">0..1</text><text fill="#000000" font-family="sans-serif" font-size="13" lengthAdjust="spacingAndGlyphs" textLength="8" x="988.9851" y="630.788">1</text><!--link Engine to CallStack--><path d="M489.799,282.8911 C415.551,310.4641 276.87,372.0251 199,469.9531 C153.689,526.9361 137.777,614.4701 132.477,657.7991 " fill="none" id="Engine-CallStack" style="stroke: #A80036; stroke-width: 1.0;"/><polygon fill="#A80036" points="502.449,278.2921,495.4432,276.5835,491.1716,282.3933,498.1773,284.1018,502.449,278.2921" style="stroke: #A80036; stroke-width: 1.0;"/><text fill="#000000" font-family="sans-serif" font-size="13" lengthAdjust="spacingAndGlyphs" textLength="8" x="486.5283" y="276.4847">1</text><text fill="#000000" font-family="sans-serif" font-size="13" lengthAdjust="spacingAndGlyphs" textLength="8" x="124.1248" y="646.8749">1</text><!--link MessageParser to Engine--><path d="M540,160.5071 C540,186.9891 540,219.1381 540,240.4961 " fill="none" id="MessageParser-Engine" style="stroke: #A80036; stroke-width: 1.0;"/><polygon fill="#A80036" points="540,147.2611,536,153.2611,540,159.2611,544,153.2611,540,147.2611" style="stroke: #A80036; stroke-width: 1.0;"/><text fill="#000000" font-family="sans-serif" font-size="13" lengthAdjust="spacingAndGlyphs" textLength="24" x="513.8625" y="166.7208">0..1</text><text fill="#000000" font-family="sans-serif" font-size="13" lengthAdjust="spacingAndGlyphs" textLength="8" x="531.025" y="229.7897">1</text><!--link Scanner to DataStack--><path d="M480.79,555.7821 C427.3,568.7921 371.597,587.6461 324,614.9531 C305.452,625.5941 288.838,643.0321 276.918,657.7141 " fill="none" id="Scanner-DataStack" style="stroke: #A80036; stroke-width: 1.0;"/><polygon fill="#FFFFFF" points="493.607,552.7641,486.8501,550.2452,481.9262,555.5136,488.6831,558.0324,493.607,552.7641" style="stroke: #A80036; stroke-width: 1.0;"/><text fill="#000000" font-family="sans-serif" font-size="13" lengthAdjust="spacingAndGlyphs" textLength="8" x="478.2976" y="550.527">1</text><text fill="#000000" font-family="sans-serif" font-size="13" lengthAdjust="spacingAndGlyphs" textLength="8" x="282.2178" y="646.7702">1</text><!--link Scanner to ExecStack--><path d="M531.205,587.4551 C512.899,595.9711 494.803,605.1821 478,614.9531 C457.022,627.1531 435.549,643.8891 419.067,657.8241 " fill="none" id="Scanner-ExecStack" style="stroke: #A80036; stroke-width: 1.0;"/><polygon fill="#FFFFFF" points="543.254,581.9611,536.1351,580.8116,532.336,586.9408,539.4549,588.0903,543.254,581.9611" style="stroke: #A80036; stroke-width: 1.0;"/><text fill="#000000" font-family="sans-serif" font-size="13" lengthAdjust="spacingAndGlyphs" textLength="8" x="515.5553" y="602.172">1</text><text fill="#000000" font-family="sans-serif" font-size="13" lengthAdjust="spacingAndGlyphs" textLength="8" x="416.8637" y="646.9056">1</text><!--link Engine to Environment--><path d="M542.886,302.0231 C544.088,317.0541 545.468,334.3011 546.612,348.6031 " fill="none" id="Engine-Environment" style="stroke: #A80036; stroke-width: 1.0;"/><polygon fill="#A80036" points="541.843,288.9911,538.3344,295.2911,542.8004,300.9529,546.3089,294.6529,541.843,288.9911" style="stroke: #A80036; stroke-width: 1.0;"/><text fill="#000000" font-family="sans-serif" font-size="13" lengthAdjust="spacingAndGlyphs" textLength="24" x="515.2403" y="309.1566">0..n</text><text fill="#000000" font-family="sans-serif" font-size="13" lengthAdjust="spacingAndGlyphs" textLength="8" x="537.2945" y="337.7942">1</text><!--link Environment to PartyScriptAsset--><path d="M616.666,412.7201 C740.02,452.0841 786.047,421.8881 909,469.9531 C925.714,476.4871 942.82,486.0781 957.569,495.4291 " fill="none" id="Environment-PartyScriptAsset" style="stroke: #A80036; stroke-width: 1.0;"/><polygon fill="#FFFFFF" points="604.08,408.5501,608.5177,414.2341,615.4712,412.3239,611.0335,406.6399,604.08,408.5501" style="stroke: #A80036; stroke-width: 1.0;"/><text fill="#000000" font-family="sans-serif" font-size="13" lengthAdjust="spacingAndGlyphs" textLength="8" x="612.0189" y="408.5412">1</text><text fill="#000000" font-family="sans-serif" font-size="13" lengthAdjust="spacingAndGlyphs" textLength="8" x="939.631" y="484.2142">1</text><!--link Environment to Scanner--><path d="M587.72,419.3081 C603.147,434.7881 621.186,452.8901 637.931,469.6921 " fill="none" id="Environment-Scanner" style="stroke: #A80036; stroke-width: 1.0;"/><polygon fill="#A80036" points="578.488,410.0431,579.8907,417.1165,586.9594,418.5422,585.5568,411.4689,578.488,410.0431" style="stroke: #A80036; stroke-width: 1.0;"/><text fill="#000000" font-family="sans-serif" font-size="13" lengthAdjust="spacingAndGlyphs" textLength="8" x="575.7449" y="429.9999">1</text><text fill="#000000" font-family="sans-serif" font-size="13" lengthAdjust="spacingAndGlyphs" textLength="8" x="622.732" y="458.9948">1</text><!--link Environment to DataStack--><path d="M486.588,417.0591 C463.752,431.9581 438.509,450.3001 418,469.9531 C355.869,529.4901 299.77,615.1071 273.584,657.7491 " fill="none" id="Environment-DataStack" style="stroke: #A80036; stroke-width: 1.0;"/><polygon fill="#A80036" points="497.573,410.0311,490.3632,409.8953,487.4648,416.4983,494.6746,416.6341,497.573,410.0311" style="stroke: #A80036; stroke-width: 1.0;"/><text fill="#000000" font-family="sans-serif" font-size="13" lengthAdjust="spacingAndGlyphs" textLength="8" x="478.1412" y="429.9854">1</text><text fill="#000000" font-family="sans-serif" font-size="13" lengthAdjust="spacingAndGlyphs" textLength="8" x="268.2628" y="646.8133">1</text><!--link Environment to ExecStack--><path d="M512.349,420.0821 C499.76,434.9891 486.268,452.5551 476,469.9531 C438.554,533.4021 410.509,616.1961 397.696,657.7481 " fill="none" id="Environment-ExecStack" style="stroke: #A80036; stroke-width: 1.0;"/><polygon fill="#A80036" points="520.869,410.2211,513.9195,412.1458,513.0233,419.301,519.9728,417.3763,520.869,410.2211" style="stroke: #A80036; stroke-width: 1.0;"/><text fill="#000000" font-family="sans-serif" font-size="13" lengthAdjust="spacingAndGlyphs" textLength="8" x="506.5432" y="429.8543">1</text><text fill="#000000" font-family="sans-serif" font-size="13" lengthAdjust="spacingAndGlyphs" textLength="8" x="390.5507" y="646.8121">1</text></g></svg>