<?xml version="1.0" encoding="UTF-8" standalone="no"?><svg xmlns="http://www.w3.org/2000/svg" xmlns:xlink="http://www.w3.org/1999/xlink" contentScriptType="application/ecmascript" contentStyleType="text/css" height="906px" preserveAspectRatio="none" style="width:1490px;height:906px;" version="1.1" viewBox="0 0 1490 906" width="1490px" zoomAndPan="magnify"><defs><filter height="300%" id="f1mcjw5k1hh9ea" width="300%" x="-1" y="-1"><feGaussianBlur result="blurOut" stdDeviation="2.0"/><feColorMatrix in="blurOut" result="blurOut2" type="matrix" values="0 0 0 0 0 0 0 0 0 0 0 0 0 0 0 0 0 0 .4 0"/><feOffset dx="4.0" dy="4.0" in="blurOut2" result="blurOut3"/><feBlend in="SourceGraphic" in2="blurOut3" mode="normal"/></filter></defs><g><text fill="#000000" font-family="sans-serif" font-size="18" lengthAdjust="spacingAndGlyphs" textLength="167" x="667.5" y="16.708">PartyScript Classes</text><!--cluster Counterparty--><polygon fill="#FFFFFF" filter="url(#f1mcjw5k1hh9ea)" points="22,54.9531,32,44.9531,1468,44.9531,1468,884.9531,1458,894.9531,22,894.9531,22,54.9531" style="stroke: #000000; stroke-width: 1.5;"/><line style="stroke: #000000; stroke-width: 1.5;" x1="1458" x2="1467" y1="54.9531" y2="45.9531"/><line style="stroke: #000000; stroke-width: 1.5;" x1="22" x2="1458" y1="54.9531" y2="54.9531"/><line style="stroke: #000000; stroke-width: 1.5;" x1="1458" x2="1458" y1="54.9531" y2="894.9531"/><text fill="#000000" font-family="sans-serif" font-size="14" font-weight="bold" lengthAdjust="spacingAndGlyphs" textLength="105" x="688.5" y="70.9482">Counterparty</text><!--cluster PartyScript--><polygon fill="#FFFFFF" filter="url(#f1mcjw5k1hh9ea)" points="184,97.9531,194,87.9531,1288,87.9531,1288,860.9531,1278,870.9531,184,870.9531,184,97.9531" style="stroke: #000000; stroke-width: 1.5;"/><line style="stroke: #000000; stroke-width: 1.5;" x1="1278" x2="1287" y1="97.9531" y2="88.9531"/><line style="stroke: #000000; stroke-width: 1.5;" x1="184" x2="1278" y1="97.9531" y2="97.9531"/><line style="stroke: #000000; stroke-width: 1.5;" x1="1278" x2="1278" y1="97.9531" y2="870.9531"/><text fill="#000000" font-family="sans-serif" font-size="14" font-weight="bold" lengthAdjust="spacingAndGlyphs" textLength="87" x="688.5" y="113.9482">PartyScript</text><!--cluster Storage--><polygon fill="#FFFFFF" filter="url(#f1mcjw5k1hh9ea)" points="208,293.9531,218,283.9531,613,283.9531,613,836.9531,603,846.9531,208,846.9531,208,293.9531" style="stroke: #000000; stroke-width: 1.5;"/><line style="stroke: #000000; stroke-width: 1.5;" x1="603" x2="612" y1="293.9531" y2="284.9531"/><line style="stroke: #000000; stroke-width: 1.5;" x1="208" x2="603" y1="293.9531" y2="293.9531"/><line style="stroke: #000000; stroke-width: 1.5;" x1="603" x2="603" y1="293.9531" y2="846.9531"/><text fill="#000000" font-family="sans-serif" font-size="14" font-weight="bold" lengthAdjust="spacingAndGlyphs" textLength="62" x="375.5" y="309.9482">Storage</text><!--cluster objects--><polygon fill="#FFFFFF" filter="url(#f1mcjw5k1hh9ea)" points="637,140.9531,647,130.9531,1264,130.9531,1264,699.9531,1254,709.9531,637,709.9531,637,140.9531" style="stroke: #000000; stroke-width: 1.5;"/><line style="stroke: #000000; stroke-width: 1.5;" x1="1254" x2="1263" y1="140.9531" y2="131.9531"/><line style="stroke: #000000; stroke-width: 1.5;" x1="637" x2="1254" y1="140.9531" y2="140.9531"/><line style="stroke: #000000; stroke-width: 1.5;" x1="1254" x2="1254" y1="140.9531" y2="709.9531"/><text fill="#000000" font-family="sans-serif" font-size="14" font-weight="bold" lengthAdjust="spacingAndGlyphs" textLength="58" x="917.5" y="156.9482">objects</text><!--cluster stack--><polygon fill="#FFFFFF" filter="url(#f1mcjw5k1hh9ea)" points="701,449.9531,711,439.9531,1085,439.9531,1085,534.9531,1075,544.9531,701,544.9531,701,449.9531" style="stroke: #000000; stroke-width: 1.5;"/><line style="stroke: #000000; stroke-width: 1.5;" x1="1075" x2="1084" y1="449.9531" y2="440.9531"/><line style="stroke: #000000; stroke-width: 1.5;" x1="701" x2="1075" y1="449.9531" y2="449.9531"/><line style="stroke: #000000; stroke-width: 1.5;" x1="1075" x2="1075" y1="449.9531" y2="544.9531"/><text fill="#000000" font-family="sans-serif" font-size="14" font-weight="bold" lengthAdjust="spacingAndGlyphs" textLength="42" x="868" y="465.9482">stack</text><!--class CounterpartyAsset--><rect fill="#FEFECE" filter="url(#f1mcjw5k1hh9ea)" height="60.8047" id="CounterpartyAsset" style="stroke: #A80036; stroke-width: 1.5;" width="149" x="1303.5" y="318.9531"/><ellipse cx="1318.5" cy="334.9531" fill="#ADD1B2" rx="11" ry="11" style="stroke: #A80036; stroke-width: 1.0;"/><path d="M1321.4688,340.5938 Q1320.8906,340.8906 1320.25,341.0391 Q1319.6094,341.1875 1318.9063,341.1875 Q1316.4063,341.1875 1315.0859,339.5391 Q1313.7656,337.8906 1313.7656,334.7656 Q1313.7656,331.6406 1315.0859,329.9844 Q1316.4063,328.3281 1318.9063,328.3281 Q1319.6094,328.3281 1320.2578,328.4844 Q1320.9063,328.6406 1321.4688,328.9375 L1321.4688,331.6563 Q1320.8438,331.0781 1320.25,330.8047 Q1319.6563,330.5313 1319.0313,330.5313 Q1317.6875,330.5313 1317,331.6016 Q1316.3125,332.6719 1316.3125,334.7656 Q1316.3125,336.8594 1317,337.9297 Q1317.6875,339 1319.0313,339 Q1319.6563,339 1320.25,338.7266 Q1320.8438,338.4531 1321.4688,337.875 L1321.4688,340.5938 Z "/><text fill="#000000" font-family="sans-serif" font-size="12" lengthAdjust="spacingAndGlyphs" textLength="117" x="1332.5" y="339.1074">CounterpartyAsset</text><line style="stroke: #A80036; stroke-width: 1.5;" x1="1304.5" x2="1451.5" y1="350.9531" y2="350.9531"/><ellipse cx="1314.5" cy="362.8555" fill="none" rx="3" ry="3" style="stroke: #038048; stroke-width: 1.0;"/><text fill="#000000" font-family="sans-serif" font-size="11" lengthAdjust="spacingAndGlyphs" textLength="94" x="1323.5" y="365.1636">owner : Address</text><line style="stroke: #A80036; stroke-width: 1.5;" x1="1304.5" x2="1451.5" y1="371.7578" y2="371.7578"/><!--class MessageParser--><rect fill="#FEFECE" filter="url(#f1mcjw5k1hh9ea)" height="66.7422" id="MessageParser" style="stroke: #A80036; stroke-width: 1.5;" width="129" x="38.5" y="169.4531"/><ellipse cx="53.5" cy="188.4219" fill="#ADD1B2" rx="11" ry="11" style="stroke: #A80036; stroke-width: 1.0;"/><path d="M56.4688,194.0625 Q55.8906,194.3594 55.25,194.5078 Q54.6094,194.6563 53.9063,194.6563 Q51.4063,194.6563 50.0859,193.0078 Q48.7656,191.3594 48.7656,188.2344 Q48.7656,185.1094 50.0859,183.4531 Q51.4063,181.7969 53.9063,181.7969 Q54.6094,181.7969 55.2578,181.9531 Q55.9063,182.1094 56.4688,182.4063 L56.4688,185.125 Q55.8438,184.5469 55.25,184.2734 Q54.6563,184 54.0313,184 Q52.6875,184 52,185.0703 Q51.3125,186.1406 51.3125,188.2344 Q51.3125,190.3281 52,191.3984 Q52.6875,192.4688 54.0313,192.4688 Q54.6563,192.4688 55.25,192.1953 Q55.8438,191.9219 56.4688,191.3438 L56.4688,194.0625 Z "/><text fill="#000000" font-family="sans-serif" font-size="12" font-style="italic" lengthAdjust="spacingAndGlyphs" textLength="72" x="80" y="185.5918">«singleton»</text><text fill="#000000" font-family="sans-serif" font-size="12" lengthAdjust="spacingAndGlyphs" textLength="97" x="67.5" y="199.5605">MessageParser</text><line style="stroke: #A80036; stroke-width: 1.5;" x1="39.5" x2="166.5" y1="207.3906" y2="207.3906"/><line style="stroke: #A80036; stroke-width: 1.5;" x1="39.5" x2="166.5" y1="215.3906" y2="215.3906"/><ellipse cx="49.5" cy="227.293" fill="#84BE84" rx="3" ry="3" style="stroke: #038048; stroke-width: 1.0;"/><text fill="#000000" font-family="sans-serif" font-size="11" lengthAdjust="spacingAndGlyphs" textLength="92" x="58.5" y="229.6011">parseMessage()</text><!--class KeyValuePair--><rect fill="#FEFECE" filter="url(#f1mcjw5k1hh9ea)" height="73.6094" id="KeyValuePair" style="stroke: #A80036; stroke-width: 1.5;" width="112" x="420" y="756.9531"/><ellipse cx="435" cy="772.9531" fill="#ADD1B2" rx="11" ry="11" style="stroke: #A80036; stroke-width: 1.0;"/><path d="M437.9688,778.5938 Q437.3906,778.8906 436.75,779.0391 Q436.1094,779.1875 435.4063,779.1875 Q432.9063,779.1875 431.5859,777.5391 Q430.2656,775.8906 430.2656,772.7656 Q430.2656,769.6406 431.5859,767.9844 Q432.9063,766.3281 435.4063,766.3281 Q436.1094,766.3281 436.7578,766.4844 Q437.4063,766.6406 437.9688,766.9375 L437.9688,769.6563 Q437.3438,769.0781 436.75,768.8047 Q436.1563,768.5313 435.5313,768.5313 Q434.1875,768.5313 433.5,769.6016 Q432.8125,770.6719 432.8125,772.7656 Q432.8125,774.8594 433.5,775.9297 Q434.1875,777 435.5313,777 Q436.1563,777 436.75,776.7266 Q437.3438,776.4531 437.9688,775.875 L437.9688,778.5938 Z "/><text fill="#000000" font-family="sans-serif" font-size="12" lengthAdjust="spacingAndGlyphs" textLength="80" x="449" y="777.1074">KeyValuePair</text><line style="stroke: #A80036; stroke-width: 1.5;" x1="421" x2="531" y1="788.9531" y2="788.9531"/><ellipse cx="431" cy="800.8555" fill="none" rx="3" ry="3" style="stroke: #038048; stroke-width: 1.0;"/><text fill="#000000" font-family="sans-serif" font-size="11" lengthAdjust="spacingAndGlyphs" textLength="19" x="440" y="803.1636">key</text><ellipse cx="431" cy="813.6602" fill="none" rx="3" ry="3" style="stroke: #038048; stroke-width: 1.0;"/><text fill="#000000" font-family="sans-serif" font-size="11" lengthAdjust="spacingAndGlyphs" textLength="30" x="440" y="815.9683">value</text><line style="stroke: #A80036; stroke-width: 1.5;" x1="421" x2="531" y1="822.5625" y2="822.5625"/><!--class KeyValueGetAccess--><rect fill="#FEFECE" filter="url(#f1mcjw5k1hh9ea)" height="60.8047" id="KeyValueGetAccess" style="stroke: #A80036; stroke-width: 1.5;" width="154" x="328" y="318.9531"/><ellipse cx="343" cy="334.9531" fill="#B4A7E5" rx="11" ry="11" style="stroke: #A80036; stroke-width: 1.0;"/><path d="M338.9219,330.7188 L338.9219,328.5625 L346.3125,328.5625 L346.3125,330.7188 L343.8438,330.7188 L343.8438,338.7969 L346.3125,338.7969 L346.3125,340.9531 L338.9219,340.9531 L338.9219,338.7969 L341.3906,338.7969 L341.3906,330.7188 L338.9219,330.7188 Z "/><text fill="#000000" font-family="sans-serif" font-size="12" font-style="italic" lengthAdjust="spacingAndGlyphs" textLength="122" x="357" y="339.1074">KeyValueGetAccess</text><line style="stroke: #A80036; stroke-width: 1.5;" x1="329" x2="481" y1="350.9531" y2="350.9531"/><line style="stroke: #A80036; stroke-width: 1.5;" x1="329" x2="481" y1="358.9531" y2="358.9531"/><ellipse cx="339" cy="370.8555" fill="#84BE84" rx="3" ry="3" style="stroke: #038048; stroke-width: 1.0;"/><text fill="#000000" font-family="sans-serif" font-size="11" lengthAdjust="spacingAndGlyphs" textLength="26" x="348" y="373.1636">get()</text><!--class KeyValueGetPutAccess--><rect fill="#FEFECE" filter="url(#f1mcjw5k1hh9ea)" height="60.8047" id="KeyValueGetPutAccess" style="stroke: #A80036; stroke-width: 1.5;" width="175" x="421.5" y="471.4531"/><ellipse cx="436.5" cy="487.4531" fill="#B4A7E5" rx="11" ry="11" style="stroke: #A80036; stroke-width: 1.0;"/><path d="M432.4219,483.2188 L432.4219,481.0625 L439.8125,481.0625 L439.8125,483.2188 L437.3438,483.2188 L437.3438,491.2969 L439.8125,491.2969 L439.8125,493.4531 L432.4219,493.4531 L432.4219,491.2969 L434.8906,491.2969 L434.8906,483.2188 L432.4219,483.2188 Z "/><text fill="#000000" font-family="sans-serif" font-size="12" font-style="italic" lengthAdjust="spacingAndGlyphs" textLength="143" x="450.5" y="491.6074">KeyValueGetPutAccess</text><line style="stroke: #A80036; stroke-width: 1.5;" x1="422.5" x2="595.5" y1="503.4531" y2="503.4531"/><line style="stroke: #A80036; stroke-width: 1.5;" x1="422.5" x2="595.5" y1="511.4531" y2="511.4531"/><ellipse cx="432.5" cy="523.3555" fill="#84BE84" rx="3" ry="3" style="stroke: #038048; stroke-width: 1.0;"/><text fill="#000000" font-family="sans-serif" font-size="11" lengthAdjust="spacingAndGlyphs" textLength="26" x="441.5" y="525.6636">put()</text><!--class KeyValueTransaction--><rect fill="#FEFECE" filter="url(#f1mcjw5k1hh9ea)" height="86.4141" id="KeyValueTransaction" style="stroke: #A80036; stroke-width: 1.5;" width="162" x="224" y="458.9531"/><ellipse cx="239" cy="474.9531" fill="#B4A7E5" rx="11" ry="11" style="stroke: #A80036; stroke-width: 1.0;"/><path d="M234.9219,470.7188 L234.9219,468.5625 L242.3125,468.5625 L242.3125,470.7188 L239.8438,470.7188 L239.8438,478.7969 L242.3125,478.7969 L242.3125,480.9531 L234.9219,480.9531 L234.9219,478.7969 L237.3906,478.7969 L237.3906,470.7188 L234.9219,470.7188 Z "/><text fill="#000000" font-family="sans-serif" font-size="12" font-style="italic" lengthAdjust="spacingAndGlyphs" textLength="130" x="253" y="479.1074">KeyValueTransaction</text><line style="stroke: #A80036; stroke-width: 1.5;" x1="225" x2="385" y1="490.9531" y2="490.9531"/><line style="stroke: #A80036; stroke-width: 1.5;" x1="225" x2="385" y1="498.9531" y2="498.9531"/><ellipse cx="235" cy="510.8555" fill="#84BE84" rx="3" ry="3" style="stroke: #038048; stroke-width: 1.0;"/><text fill="#000000" font-family="sans-serif" font-size="11" lengthAdjust="spacingAndGlyphs" textLength="72" x="244" y="513.1636">transaction()</text><ellipse cx="235" cy="523.6602" fill="#84BE84" rx="3" ry="3" style="stroke: #038048; stroke-width: 1.0;"/><text fill="#000000" font-family="sans-serif" font-size="11" lengthAdjust="spacingAndGlyphs" textLength="50" x="244" y="525.9683">commit()</text><ellipse cx="235" cy="536.4648" fill="#84BE84" rx="3" ry="3" style="stroke: #038048; stroke-width: 1.0;"/><text fill="#000000" font-family="sans-serif" font-size="11" lengthAdjust="spacingAndGlyphs" textLength="52" x="244" y="538.7729">rollback()</text><!--class KeyValueStore--><rect fill="#FEFECE" filter="url(#f1mcjw5k1hh9ea)" height="92.3516" id="KeyValueStore" style="stroke: #A80036; stroke-width: 1.5;" width="241" x="355.5" y="604.9531"/><ellipse cx="426.75" cy="623.9219" fill="#ADD1B2" rx="11" ry="11" style="stroke: #A80036; stroke-width: 1.0;"/><path d="M429.7188,629.5625 Q429.1406,629.8594 428.5,630.0078 Q427.8594,630.1563 427.1563,630.1563 Q424.6563,630.1563 423.3359,628.5078 Q422.0156,626.8594 422.0156,623.7344 Q422.0156,620.6094 423.3359,618.9531 Q424.6563,617.2969 427.1563,617.2969 Q427.8594,617.2969 428.5078,617.4531 Q429.1563,617.6094 429.7188,617.9063 L429.7188,620.625 Q429.0938,620.0469 428.5,619.7734 Q427.9063,619.5 427.2813,619.5 Q425.9375,619.5 425.25,620.5703 Q424.5625,621.6406 424.5625,623.7344 Q424.5625,625.8281 425.25,626.8984 Q425.9375,627.9688 427.2813,627.9688 Q427.9063,627.9688 428.5,627.6953 Q429.0938,627.4219 429.7188,626.8438 L429.7188,629.5625 Z "/><text fill="#000000" font-family="sans-serif" font-size="12" font-style="italic" lengthAdjust="spacingAndGlyphs" textLength="75" x="454.75" y="621.0918">«singletion»</text><text fill="#000000" font-family="sans-serif" font-size="12" lengthAdjust="spacingAndGlyphs" textLength="90" x="447.25" y="635.0605">KeyValueStore</text><line style="stroke: #A80036; stroke-width: 1.5;" x1="356.5" x2="595.5" y1="642.8906" y2="642.8906"/><line style="stroke: #A80036; stroke-width: 1.5;" x1="356.5" x2="595.5" y1="650.8906" y2="650.8906"/><ellipse cx="366.5" cy="662.793" fill="#84BE84" rx="3" ry="3" style="stroke: #038048; stroke-width: 1.0;"/><text fill="#000000" font-family="sans-serif" font-size="11" lengthAdjust="spacingAndGlyphs" text-decoration="underline" textLength="204" x="375.5" y="665.1011">getInstance() : KeyValueTransaction</text><line style="stroke: #000000; stroke-width: 1.0;" x1="375.5" x2="579.5" y1="667.1011" y2="667.1011"/><ellipse cx="366.5" cy="675.5977" fill="#84BE84" rx="3" ry="3" style="stroke: #038048; stroke-width: 1.0;"/><text fill="#000000" font-family="sans-serif" font-size="11" lengthAdjust="spacingAndGlyphs" text-decoration="underline" textLength="215" x="375.5" y="677.9058">getInstance() : KeyValueGetPutAccess</text><line style="stroke: #000000; stroke-width: 1.0;" x1="375.5" x2="590.5" y1="679.9058" y2="679.9058"/><ellipse cx="366.5" cy="688.4023" fill="#84BE84" rx="3" ry="3" style="stroke: #038048; stroke-width: 1.0;"/><text fill="#000000" font-family="sans-serif" font-size="11" lengthAdjust="spacingAndGlyphs" text-decoration="underline" textLength="197" x="375.5" y="690.7104">getInstance() : KeyValueGetAccess</text><line style="stroke: #000000; stroke-width: 1.0;" x1="375.5" x2="572.5" y1="692.7104" y2="692.7104"/><!--class Environment--><rect fill="#FEFECE" filter="url(#f1mcjw5k1hh9ea)" height="73.6094" id="Environment" style="stroke: #A80036; stroke-width: 1.5;" width="198" x="948" y="165.9531"/><ellipse cx="1003.75" cy="181.9531" fill="#ADD1B2" rx="11" ry="11" style="stroke: #A80036; stroke-width: 1.0;"/><path d="M1006.7188,187.5938 Q1006.1406,187.8906 1005.5,188.0391 Q1004.8594,188.1875 1004.1563,188.1875 Q1001.6563,188.1875 1000.3359,186.5391 Q999.0156,184.8906 999.0156,181.7656 Q999.0156,178.6406 1000.3359,176.9844 Q1001.6563,175.3281 1004.1563,175.3281 Q1004.8594,175.3281 1005.5078,175.4844 Q1006.1563,175.6406 1006.7188,175.9375 L1006.7188,178.6563 Q1006.0938,178.0781 1005.5,177.8047 Q1004.9063,177.5313 1004.2813,177.5313 Q1002.9375,177.5313 1002.25,178.6016 Q1001.5625,179.6719 1001.5625,181.7656 Q1001.5625,183.8594 1002.25,184.9297 Q1002.9375,186 1004.2813,186 Q1004.9063,186 1005.5,185.7266 Q1006.0938,185.4531 1006.7188,184.875 L1006.7188,187.5938 Z "/><text fill="#000000" font-family="sans-serif" font-size="12" lengthAdjust="spacingAndGlyphs" textLength="78" x="1024.25" y="186.1074">Environment</text><line style="stroke: #A80036; stroke-width: 1.5;" x1="949" x2="1145" y1="197.9531" y2="197.9531"/><line style="stroke: #A80036; stroke-width: 1.5;" x1="949" x2="1145" y1="205.9531" y2="205.9531"/><ellipse cx="959" cy="217.8555" fill="#84BE84" rx="3" ry="3" style="stroke: #038048; stroke-width: 1.0;"/><text fill="#000000" font-family="sans-serif" font-size="11" lengthAdjust="spacingAndGlyphs" textLength="172" x="968" y="220.1636">new(asset: PartypScriptAsset)</text><ellipse cx="959" cy="230.6602" fill="#84BE84" rx="3" ry="3" style="stroke: #038048; stroke-width: 1.0;"/><text fill="#000000" font-family="sans-serif" font-size="11" lengthAdjust="spacingAndGlyphs" textLength="35" x="968" y="232.9683">scan()</text><!--class Engine--><rect fill="#FEFECE" filter="url(#f1mcjw5k1hh9ea)" height="60.8047" id="Engine" style="stroke: #A80036; stroke-width: 1.5;" width="159" x="652.5" y="318.9531"/><ellipse cx="706.25" cy="334.9531" fill="#ADD1B2" rx="11" ry="11" style="stroke: #A80036; stroke-width: 1.0;"/><path d="M709.2188,340.5938 Q708.6406,340.8906 708,341.0391 Q707.3594,341.1875 706.6563,341.1875 Q704.1563,341.1875 702.8359,339.5391 Q701.5156,337.8906 701.5156,334.7656 Q701.5156,331.6406 702.8359,329.9844 Q704.1563,328.3281 706.6563,328.3281 Q707.3594,328.3281 708.0078,328.4844 Q708.6563,328.6406 709.2188,328.9375 L709.2188,331.6563 Q708.5938,331.0781 708,330.8047 Q707.4063,330.5313 706.7813,330.5313 Q705.4375,330.5313 704.75,331.6016 Q704.0625,332.6719 704.0625,334.7656 Q704.0625,336.8594 704.75,337.9297 Q705.4375,339 706.7813,339 Q707.4063,339 708,338.7266 Q708.5938,338.4531 709.2188,337.875 L709.2188,340.5938 Z "/><text fill="#000000" font-family="sans-serif" font-size="12" lengthAdjust="spacingAndGlyphs" textLength="43" x="726.75" y="339.1074">Engine</text><line style="stroke: #A80036; stroke-width: 1.5;" x1="653.5" x2="810.5" y1="350.9531" y2="350.9531"/><line style="stroke: #A80036; stroke-width: 1.5;" x1="653.5" x2="810.5" y1="358.9531" y2="358.9531"/><ellipse cx="663.5" cy="370.8555" fill="#84BE84" rx="3" ry="3" style="stroke: #038048; stroke-width: 1.0;"/><text fill="#000000" font-family="sans-serif" font-size="11" lengthAdjust="spacingAndGlyphs" textLength="133" x="672.5" y="373.1636">new(: PartyScriptAsset)</text><!--class Scanner--><rect fill="#FEFECE" filter="url(#f1mcjw5k1hh9ea)" height="99.2188" id="Scanner" style="stroke: #A80036; stroke-width: 1.5;" width="253" x="920.5" y="299.9531"/><ellipse cx="1016.75" cy="315.9531" fill="#ADD1B2" rx="11" ry="11" style="stroke: #A80036; stroke-width: 1.0;"/><path d="M1019.7188,321.5938 Q1019.1406,321.8906 1018.5,322.0391 Q1017.8594,322.1875 1017.1563,322.1875 Q1014.6563,322.1875 1013.3359,320.5391 Q1012.0156,318.8906 1012.0156,315.7656 Q1012.0156,312.6406 1013.3359,310.9844 Q1014.6563,309.3281 1017.1563,309.3281 Q1017.8594,309.3281 1018.5078,309.4844 Q1019.1563,309.6406 1019.7188,309.9375 L1019.7188,312.6563 Q1019.0938,312.0781 1018.5,311.8047 Q1017.9063,311.5313 1017.2813,311.5313 Q1015.9375,311.5313 1015.25,312.6016 Q1014.5625,313.6719 1014.5625,315.7656 Q1014.5625,317.8594 1015.25,318.9297 Q1015.9375,320 1017.2813,320 Q1017.9063,320 1018.5,319.7266 Q1019.0938,319.4531 1019.7188,318.875 L1019.7188,321.5938 Z "/><text fill="#000000" font-family="sans-serif" font-size="12" lengthAdjust="spacingAndGlyphs" textLength="52" x="1037.25" y="320.1074">Scanner</text><line style="stroke: #A80036; stroke-width: 1.5;" x1="921.5" x2="1172.5" y1="331.9531" y2="331.9531"/><rect fill="none" height="6" style="stroke: #C82930; stroke-width: 1.0;" width="6" x="928.5" y="340.8555"/><text fill="#000000" font-family="sans-serif" font-size="11" lengthAdjust="spacingAndGlyphs" textLength="109" x="940.5" y="346.1636">accepted : Boolean</text><line style="stroke: #A80036; stroke-width: 1.5;" x1="921.5" x2="1172.5" y1="352.7578" y2="352.7578"/><ellipse cx="931.5" cy="364.6602" fill="#84BE84" rx="3" ry="3" style="stroke: #038048; stroke-width: 1.0;"/><text fill="#000000" font-family="sans-serif" font-size="11" lengthAdjust="spacingAndGlyphs" textLength="227" x="940.5" y="366.9683">new(: PartyScriptAsset, : Stack, : Stack)</text><ellipse cx="931.5" cy="377.4648" fill="#84BE84" rx="3" ry="3" style="stroke: #038048; stroke-width: 1.0;"/><text fill="#000000" font-family="sans-serif" font-size="11" lengthAdjust="spacingAndGlyphs" textLength="35" x="940.5" y="379.7729">scan()</text><ellipse cx="931.5" cy="390.2695" fill="#84BE84" rx="3" ry="3" style="stroke: #038048; stroke-width: 1.0;"/><text fill="#000000" font-family="sans-serif" font-size="11" lengthAdjust="spacingAndGlyphs" textLength="127" x="940.5" y="392.5776">isAccepted() : Boolean</text><!--class Scriptlet--><rect fill="#FEFECE" filter="url(#f1mcjw5k1hh9ea)" height="86.4141" id="Scriptlet" style="stroke: #A80036; stroke-width: 1.5;" width="147" x="1100.5" y="607.9531"/><ellipse cx="1143.85" cy="623.9531" fill="#ADD1B2" rx="11" ry="11" style="stroke: #A80036; stroke-width: 1.0;"/><path d="M1146.8188,629.5938 Q1146.2406,629.8906 1145.6,630.0391 Q1144.9594,630.1875 1144.2563,630.1875 Q1141.7563,630.1875 1140.4359,628.5391 Q1139.1156,626.8906 1139.1156,623.7656 Q1139.1156,620.6406 1140.4359,618.9844 Q1141.7563,617.3281 1144.2563,617.3281 Q1144.9594,617.3281 1145.6078,617.4844 Q1146.2563,617.6406 1146.8188,617.9375 L1146.8188,620.6563 Q1146.1938,620.0781 1145.6,619.8047 Q1145.0063,619.5313 1144.3813,619.5313 Q1143.0375,619.5313 1142.35,620.6016 Q1141.6625,621.6719 1141.6625,623.7656 Q1141.6625,625.8594 1142.35,626.9297 Q1143.0375,628 1144.3813,628 Q1145.0063,628 1145.6,627.7266 Q1146.1938,627.4531 1146.8188,626.875 L1146.8188,629.5938 Z "/><text fill="#000000" font-family="sans-serif" font-size="12" lengthAdjust="spacingAndGlyphs" textLength="52" x="1164.15" y="628.1074">Scriptlet</text><line style="stroke: #A80036; stroke-width: 1.5;" x1="1101.5" x2="1246.5" y1="639.9531" y2="639.9531"/><rect fill="none" height="6" style="stroke: #C82930; stroke-width: 1.0;" width="6" x="1108.5" y="648.8555"/><text fill="#000000" font-family="sans-serif" font-size="11" lengthAdjust="spacingAndGlyphs" textLength="73" x="1120.5" y="654.1636">data : Binary</text><line style="stroke: #A80036; stroke-width: 1.5;" x1="1101.5" x2="1246.5" y1="660.7578" y2="660.7578"/><ellipse cx="1111.5" cy="672.6602" fill="#84BE84" rx="3" ry="3" style="stroke: #038048; stroke-width: 1.0;"/><text fill="#000000" font-family="sans-serif" font-size="11" lengthAdjust="spacingAndGlyphs" textLength="75" x="1120.5" y="674.9683">new(: Binary)</text><ellipse cx="1111.5" cy="685.4648" fill="#84BE84" rx="3" ry="3" style="stroke: #038048; stroke-width: 1.0;"/><text fill="#000000" font-family="sans-serif" font-size="11" lengthAdjust="spacingAndGlyphs" textLength="121" x="1120.5" y="687.7729">getScriptlet() : Binary</text><!--class PartyScriptAsset--><rect fill="#FEFECE" filter="url(#f1mcjw5k1hh9ea)" height="60.8047" id="PartyScriptAsset" style="stroke: #A80036; stroke-width: 1.5;" width="144" x="1104" y="471.4531"/><ellipse cx="1123.05" cy="487.4531" fill="#ADD1B2" rx="11" ry="11" style="stroke: #A80036; stroke-width: 1.0;"/><path d="M1126.0188,493.0938 Q1125.4406,493.3906 1124.8,493.5391 Q1124.1594,493.6875 1123.4563,493.6875 Q1120.9563,493.6875 1119.6359,492.0391 Q1118.3156,490.3906 1118.3156,487.2656 Q1118.3156,484.1406 1119.6359,482.4844 Q1120.9563,480.8281 1123.4563,480.8281 Q1124.1594,480.8281 1124.8078,480.9844 Q1125.4563,481.1406 1126.0188,481.4375 L1126.0188,484.1563 Q1125.3938,483.5781 1124.8,483.3047 Q1124.2063,483.0313 1123.5813,483.0313 Q1122.2375,483.0313 1121.55,484.1016 Q1120.8625,485.1719 1120.8625,487.2656 Q1120.8625,489.3594 1121.55,490.4297 Q1122.2375,491.5 1123.5813,491.5 Q1124.2063,491.5 1124.8,491.2266 Q1125.3938,490.9531 1126.0188,490.375 L1126.0188,493.0938 Z "/><text fill="#000000" font-family="sans-serif" font-size="12" lengthAdjust="spacingAndGlyphs" textLength="103" x="1137.95" y="491.6074">PartyScriptAsset</text><line style="stroke: #A80036; stroke-width: 1.5;" x1="1105" x2="1247" y1="503.4531" y2="503.4531"/><line style="stroke: #A80036; stroke-width: 1.5;" x1="1105" x2="1247" y1="511.4531" y2="511.4531"/><text fill="#000000" font-family="sans-serif" font-size="11" lengthAdjust="spacingAndGlyphs" textLength="132" x="1110" y="525.6636">getScriptlet() : Scriptlet</text><!--class DataStack--><rect fill="#FEFECE" filter="url(#f1mcjw5k1hh9ea)" height="53.9375" id="DataStack" style="stroke: #A80036; stroke-width: 1.5;" width="97" x="840.5" y="474.9531"/><ellipse cx="855.5" cy="493.9219" fill="#ADD1B2" rx="11" ry="11" style="stroke: #A80036; stroke-width: 1.0;"/><path d="M858.4688,499.5625 Q857.8906,499.8594 857.25,500.0078 Q856.6094,500.1563 855.9063,500.1563 Q853.4063,500.1563 852.0859,498.5078 Q850.7656,496.8594 850.7656,493.7344 Q850.7656,490.6094 852.0859,488.9531 Q853.4063,487.2969 855.9063,487.2969 Q856.6094,487.2969 857.2578,487.4531 Q857.9063,487.6094 858.4688,487.9063 L858.4688,490.625 Q857.8438,490.0469 857.25,489.7734 Q856.6563,489.5 856.0313,489.5 Q854.6875,489.5 854,490.5703 Q853.3125,491.6406 853.3125,493.7344 Q853.3125,495.8281 854,496.8984 Q854.6875,497.9688 856.0313,497.9688 Q856.6563,497.9688 857.25,497.6953 Q857.8438,497.4219 858.4688,496.8438 L858.4688,499.5625 Z "/><text fill="#000000" font-family="sans-serif" font-size="12" font-style="italic" lengthAdjust="spacingAndGlyphs" textLength="49" x="877.5" y="491.0918">«Stack»</text><text fill="#000000" font-family="sans-serif" font-size="12" lengthAdjust="spacingAndGlyphs" textLength="65" x="869.5" y="505.0605">DataStack</text><line style="stroke: #A80036; stroke-width: 1.5;" x1="841.5" x2="936.5" y1="512.8906" y2="512.8906"/><line style="stroke: #A80036; stroke-width: 1.5;" x1="841.5" x2="936.5" y1="520.8906" y2="520.8906"/><!--class ExecStack--><rect fill="#FEFECE" filter="url(#f1mcjw5k1hh9ea)" height="53.9375" id="ExecStack" style="stroke: #A80036; stroke-width: 1.5;" width="96" x="973" y="474.9531"/><ellipse cx="988" cy="493.9219" fill="#ADD1B2" rx="11" ry="11" style="stroke: #A80036; stroke-width: 1.0;"/><path d="M990.9688,499.5625 Q990.3906,499.8594 989.75,500.0078 Q989.1094,500.1563 988.4063,500.1563 Q985.9063,500.1563 984.5859,498.5078 Q983.2656,496.8594 983.2656,493.7344 Q983.2656,490.6094 984.5859,488.9531 Q985.9063,487.2969 988.4063,487.2969 Q989.1094,487.2969 989.7578,487.4531 Q990.4063,487.6094 990.9688,487.9063 L990.9688,490.625 Q990.3438,490.0469 989.75,489.7734 Q989.1563,489.5 988.5313,489.5 Q987.1875,489.5 986.5,490.5703 Q985.8125,491.6406 985.8125,493.7344 Q985.8125,495.8281 986.5,496.8984 Q987.1875,497.9688 988.5313,497.9688 Q989.1563,497.9688 989.75,497.6953 Q990.3438,497.4219 990.9688,496.8438 L990.9688,499.5625 Z "/><text fill="#000000" font-family="sans-serif" font-size="12" font-style="italic" lengthAdjust="spacingAndGlyphs" textLength="49" x="1009.5" y="491.0918">«Stack»</text><text fill="#000000" font-family="sans-serif" font-size="12" lengthAdjust="spacingAndGlyphs" textLength="64" x="1002" y="505.0605">ExecStack</text><line style="stroke: #A80036; stroke-width: 1.5;" x1="974" x2="1068" y1="512.8906" y2="512.8906"/><line style="stroke: #A80036; stroke-width: 1.5;" x1="974" x2="1068" y1="520.8906" y2="520.8906"/><!--class CallStack--><rect fill="#FEFECE" filter="url(#f1mcjw5k1hh9ea)" height="53.9375" id="CallStack" style="stroke: #A80036; stroke-width: 1.5;" width="89" x="716.5" y="474.9531"/><ellipse cx="731.5" cy="493.9219" fill="#ADD1B2" rx="11" ry="11" style="stroke: #A80036; stroke-width: 1.0;"/><path d="M734.4688,499.5625 Q733.8906,499.8594 733.25,500.0078 Q732.6094,500.1563 731.9063,500.1563 Q729.4063,500.1563 728.0859,498.5078 Q726.7656,496.8594 726.7656,493.7344 Q726.7656,490.6094 728.0859,488.9531 Q729.4063,487.2969 731.9063,487.2969 Q732.6094,487.2969 733.2578,487.4531 Q733.9063,487.6094 734.4688,487.9063 L734.4688,490.625 Q733.8438,490.0469 733.25,489.7734 Q732.6563,489.5 732.0313,489.5 Q730.6875,489.5 730,490.5703 Q729.3125,491.6406 729.3125,493.7344 Q729.3125,495.8281 730,496.8984 Q730.6875,497.9688 732.0313,497.9688 Q732.6563,497.9688 733.25,497.6953 Q733.8438,497.4219 734.4688,496.8438 L734.4688,499.5625 Z "/><text fill="#000000" font-family="sans-serif" font-size="12" font-style="italic" lengthAdjust="spacingAndGlyphs" textLength="49" x="749.5" y="491.0918">«Stack»</text><text fill="#000000" font-family="sans-serif" font-size="12" lengthAdjust="spacingAndGlyphs" textLength="57" x="745.5" y="505.0605">CallStack</text><line style="stroke: #A80036; stroke-width: 1.5;" x1="717.5" x2="804.5" y1="512.8906" y2="512.8906"/><line style="stroke: #A80036; stroke-width: 1.5;" x1="717.5" x2="804.5" y1="520.8906" y2="520.8906"/><!--link KeyValueGetAccess to KeyValueGetPutAccess--><path d="M437.053,396.8371 C453.814,421.0931 473.834,450.0641 488.496,471.2811 " fill="none" id="KeyValueGetAccess-KeyValueGetPutAccess" style="stroke: #A80036; stroke-width: 1.0;"/><polygon fill="none" points="431.158,400.6201,425.547,380.1871,442.676,392.6611,431.158,400.6201" style="stroke: #A80036; stroke-width: 1.0;"/><!--link KeyValueTransaction to KeyValueStore--><path d="M369.269,558.2021 C387.126,573.5531 406.302,590.0371 423.405,604.7401 " fill="none" id="KeyValueTransaction-KeyValueStore" style="stroke: #A80036; stroke-width: 1.0;"/><polygon fill="none" points="364.605,563.4231,354.002,545.0771,373.731,552.8071,364.605,563.4231" style="stroke: #A80036; stroke-width: 1.0;"/><!--link KeyValueGetPutAccess to KeyValueStore--><path d="M497.879,552.4931 C494.073,569.4471 489.838,588.3101 486.116,604.8901 " fill="none" id="KeyValueGetPutAccess-KeyValueStore" style="stroke: #A80036; stroke-width: 1.0;"/><polygon fill="none" points="491.111,550.6821,502.322,532.7011,504.771,553.7481,491.111,550.6821" style="stroke: #A80036; stroke-width: 1.0;"/><!--link KeyValueStore to KeyValuePair--><path d="M476,709.9991 C476,725.8601 476,742.5891 476,756.8371 " fill="none" id="KeyValueStore-KeyValuePair" style="stroke: #A80036; stroke-width: 1.0;"/><polygon fill="#A80036" points="476,696.9541,472,702.9541,476,708.9541,480,702.9541,476,696.9541" style="stroke: #A80036; stroke-width: 1.0;"/><text fill="#000000" font-family="sans-serif" font-size="13" lengthAdjust="spacingAndGlyphs" textLength="8" x="467.3625" y="717.5303">1</text><text fill="#000000" font-family="sans-serif" font-size="13" lengthAdjust="spacingAndGlyphs" textLength="8" x="467.2875" y="746.0034">n</text><!--link MessageParser to KeyValueGetAccess--><path d="M179.665,240.6351 C230.317,264.8711 295.837,296.2211 343.158,318.8631 " fill="none" id="MessageParser-KeyValueGetAccess" style="stroke: #A80036; stroke-width: 1.0;"/><polygon fill="#FFFFFF" points="167.787,234.9521,171.4725,241.1503,178.6114,240.1322,174.9259,233.934,167.787,234.9521" style="stroke: #A80036; stroke-width: 1.0;"/><text fill="#000000" font-family="sans-serif" font-size="13" lengthAdjust="spacingAndGlyphs" textLength="8" x="175.3106" y="234.72">1</text><text fill="#000000" font-family="sans-serif" font-size="13" lengthAdjust="spacingAndGlyphs" textLength="8" x="321.5781" y="308.1078">1</text><!--link CallStack to Environment--><path d="M789.243,464.2251 C802.672,445.4661 818.127,421.8221 829,398.9531 C853.568,347.2801 828.211,318.0131 867,275.9531 C873.475,268.9331 909.59,253.9841 947.791,239.5181 " fill="none" id="CallStack-Environment" style="stroke: #A80036; stroke-width: 1.0;"/><polygon fill="#A80036" points="781.412,474.9431,788.1815,472.4584,788.4916,465.254,781.7221,467.7387,781.412,474.9431" style="stroke: #A80036; stroke-width: 1.0;"/><text fill="#000000" font-family="sans-serif" font-size="13" lengthAdjust="spacingAndGlyphs" textLength="8" x="777.2073" y="464.0522">1</text><text fill="#000000" font-family="sans-serif" font-size="13" lengthAdjust="spacingAndGlyphs" textLength="8" x="931.8891" y="238.8303">n</text><!--link MessageParser to Engine--><path d="M181.051,205.2321 C283.17,209.0711 466.359,223.4661 613,275.9531 C641.471,286.1441 670.51,303.6681 692.775,318.9341 " fill="none" id="MessageParser-Engine" style="stroke: #A80036; stroke-width: 1.0;"/><polygon fill="#A80036" points="167.797,204.7761,173.6559,208.9801,179.7899,205.1889,173.931,200.9849,167.797,204.7761" style="stroke: #A80036; stroke-width: 1.0;"/><text fill="#000000" font-family="sans-serif" font-size="13" lengthAdjust="spacingAndGlyphs" textLength="24" x="175.7167" y="201.2777">0..1</text><text fill="#000000" font-family="sans-serif" font-size="13" lengthAdjust="spacingAndGlyphs" textLength="8" x="675.3195" y="307.7203">1</text><!--link Scanner to KeyValueGetPutAccess--><path d="M907.694,382.5051 C881.591,388.2101 854.499,393.9281 829,398.9531 C744.049,415.6931 718.848,403.7071 637,431.9531 C608.482,441.7951 578.697,457.4831 555.042,471.4161 " fill="none" id="Scanner-KeyValueGetPutAccess" style="stroke: #A80036; stroke-width: 1.0;"/><polygon fill="#FFFFFF" points="920.417,379.7091,913.6981,377.0907,908.6969,382.2858,915.4158,384.9041,920.417,379.7091" style="stroke: #A80036; stroke-width: 1.0;"/><text fill="#000000" font-family="sans-serif" font-size="13" lengthAdjust="spacingAndGlyphs" textLength="8" x="904.4596" y="378.1601">1</text><text fill="#000000" font-family="sans-serif" font-size="13" lengthAdjust="spacingAndGlyphs" textLength="8" x="556.2387" y="460.1983">1</text><!--link Engine to KeyValueTransaction--><path d="M654.758,384.9241 C641.037,390.1831 626.739,395.1241 613,398.9531 C522.413,424.2001 491.239,396.8411 404,431.9531 C387.383,438.6411 370.823,448.5581 356.135,458.8021 " fill="none" id="Engine-KeyValueTransaction" style="stroke: #A80036; stroke-width: 1.0;"/><polygon fill="#FFFFFF" points="667.165,380.0271,660.1155,378.5092,656.0029,384.4326,663.0525,385.9506,667.165,380.0271" style="stroke: #A80036; stroke-width: 1.0;"/><text fill="#000000" font-family="sans-serif" font-size="13" lengthAdjust="spacingAndGlyphs" textLength="8" x="644.9678" y="399.9806">1</text><text fill="#000000" font-family="sans-serif" font-size="13" lengthAdjust="spacingAndGlyphs" textLength="8" x="355.6471" y="447.7741">1</text><!--link CounterpartyAsset to PartyScriptAsset--><path d="M1321.83,392.3041 C1288.14,417.4051 1246.1,448.7251 1215.83,471.2811 " fill="none" id="CounterpartyAsset-PartyScriptAsset" style="stroke: #A80036; stroke-width: 1.0;"/><polygon fill="none" points="1317.87,386.5231,1338.09,380.1871,1326.24,397.7491,1317.87,386.5231" style="stroke: #A80036; stroke-width: 1.0;"/><!--link PartyScriptAsset to Scriptlet--><path d="M1175.42,545.8561 C1175.15,565.3381 1174.84,588.3131 1174.57,607.7151 " fill="none" id="PartyScriptAsset-Scriptlet" style="stroke: #A80036; stroke-width: 1.0;"/><polygon fill="#A80036" points="1175.6,532.7011,1171.5193,538.6465,1175.4378,544.7,1179.5185,538.7546,1175.6,532.7011" style="stroke: #A80036; stroke-width: 1.0;"/><text fill="#000000" font-family="sans-serif" font-size="13" lengthAdjust="spacingAndGlyphs" textLength="24" x="1149.1587" y="552.3304">0..1</text><text fill="#000000" font-family="sans-serif" font-size="13" lengthAdjust="spacingAndGlyphs" textLength="8" x="1166.0448" y="596.9912">1</text><!--link Engine to CallStack--><path d="M740.246,393.2451 C745.31,419.5261 751.633,452.3401 755.96,474.8001 " fill="none" id="Engine-CallStack" style="stroke: #A80036; stroke-width: 1.0;"/><polygon fill="#A80036" points="737.729,380.1871,734.9366,386.8356,739.9997,391.9703,742.7921,385.3218,737.729,380.1871" style="stroke: #A80036; stroke-width: 1.0;"/><text fill="#000000" font-family="sans-serif" font-size="13" lengthAdjust="spacingAndGlyphs" textLength="8" x="730.0694" y="399.8136">1</text><text fill="#000000" font-family="sans-serif" font-size="13" lengthAdjust="spacingAndGlyphs" textLength="8" x="745.8695" y="463.8761">1</text><!--link Engine to KeyValueStore--><path d="M698.078,390.5131 C688.06,403.3131 677.51,417.8321 669,431.9531 C638.51,482.5491 651.71,507.4831 614,552.9531 C597.642,572.6771 576.345,590.2491 555.395,604.8371 " fill="none" id="Engine-KeyValueStore" style="stroke: #A80036; stroke-width: 1.0;"/><polygon fill="#FFFFFF" points="706.312,380.2121,699.4414,382.4017,698.82,389.586,705.6906,387.3964,706.312,380.2121" style="stroke: #A80036; stroke-width: 1.0;"/><text fill="#000000" font-family="sans-serif" font-size="13" lengthAdjust="spacingAndGlyphs" textLength="8" x="692.4672" y="399.8436">1</text><text fill="#000000" font-family="sans-serif" font-size="13" lengthAdjust="spacingAndGlyphs" textLength="8" x="558.4686" y="594.0131">1</text><!--link Environment to PartyScriptAsset--><path d="M1158.46,232.0331 C1179.24,242.4191 1198.36,256.6021 1211,275.9531 C1250.56,336.5231 1215.68,425.4721 1192.56,471.2761 " fill="none" id="Environment-PartyScriptAsset" style="stroke: #A80036; stroke-width: 1.0;"/><polygon fill="#FFFFFF" points="1146.43,226.4971,1150.2049,232.6412,1157.3283,231.5198,1153.5534,225.3757,1146.43,226.4971" style="stroke: #A80036; stroke-width: 1.0;"/><text fill="#000000" font-family="sans-serif" font-size="13" lengthAdjust="spacingAndGlyphs" textLength="8" x="1154.0256" y="224.7615">1</text><text fill="#000000" font-family="sans-serif" font-size="13" lengthAdjust="spacingAndGlyphs" textLength="8" x="1187.1505" y="460.5029">1</text><!--link Environment to Scanner--><path d="M1047,253.3231 C1047,268.3251 1047,284.7951 1047,299.7521 " fill="none" id="Environment-Scanner" style="stroke: #A80036; stroke-width: 1.0;"/><polygon fill="#A80036" points="1047,240.0441,1043,246.0441,1047,252.0441,1051,246.0441,1047,240.0441" style="stroke: #A80036; stroke-width: 1.0;"/><text fill="#000000" font-family="sans-serif" font-size="13" lengthAdjust="spacingAndGlyphs" textLength="8" x="1038.3375" y="259.5398">1</text><text fill="#000000" font-family="sans-serif" font-size="13" lengthAdjust="spacingAndGlyphs" textLength="8" x="1038.4375" y="288.7691">1</text><!--link Environment to DataStack--><path d="M945.332,245.9391 C925.649,256.0361 909.19,266.6001 903,275.9531 C862.391,337.3121 873.876,429.8941 882.843,474.7491 " fill="none" id="Environment-DataStack" style="stroke: #A80036; stroke-width: 1.0;"/><polygon fill="#A80036" points="957.24,240.0611,950.0892,239.1301,946.4796,245.3728,953.6303,246.3037,957.24,240.0611" style="stroke: #A80036; stroke-width: 1.0;"/><text fill="#000000" font-family="sans-serif" font-size="13" lengthAdjust="spacingAndGlyphs" textLength="8" x="933.711" y="259.5596">1</text><text fill="#000000" font-family="sans-serif" font-size="13" lengthAdjust="spacingAndGlyphs" textLength="8" x="872.4942" y="463.8133">1</text><!--link Environment to ExecStack--><path d="M1157.16,241.9801 C1170.59,251.0801 1182.54,262.2571 1191,275.9531 C1219.74,322.4551 1224.04,355.4021 1191,398.9531 C1158.08,442.3361 1117.98,401.2571 1073,431.9531 C1057.02,442.8601 1043.94,460.2961 1034.89,474.9101 " fill="none" id="Environment-ExecStack" style="stroke: #A80036; stroke-width: 1.0;"/><polygon fill="#A80036" points="1146.11,235.1201,1149.0979,241.6831,1156.3052,241.4493,1153.3173,234.8863,1146.11,235.1201" style="stroke: #A80036; stroke-width: 1.0;"/><text fill="#000000" font-family="sans-serif" font-size="13" lengthAdjust="spacingAndGlyphs" textLength="8" x="1154.0044" y="250.2441">1</text><text fill="#000000" font-family="sans-serif" font-size="13" lengthAdjust="spacingAndGlyphs" textLength="8" x="1029.1771" y="464.0115">1</text><!--link Scanner to DataStack--><path d="M980.587,408.1081 C971.879,416.0101 963.154,424.1051 955,431.9531 C940.668,445.7481 925.27,461.7711 912.955,474.9021 " fill="none" id="Scanner-DataStack" style="stroke: #A80036; stroke-width: 1.0;"/><polygon fill="#FFFFFF" points="990.381,399.2921,983.2455,400.3335,981.4623,407.3206,988.5978,406.2793,990.381,399.2921" style="stroke: #A80036; stroke-width: 1.0;"/><text fill="#000000" font-family="sans-serif" font-size="13" lengthAdjust="spacingAndGlyphs" textLength="8" x="973.8565" y="419.4163">1</text><text fill="#000000" font-family="sans-serif" font-size="13" lengthAdjust="spacingAndGlyphs" textLength="8" x="909.5696" y="464.0017">1</text><!--link Scanner to ExecStack--><path d="M1036.32,412.2611 C1032.56,434.0521 1028.52,457.3981 1025.54,474.6651 " fill="none" id="Scanner-ExecStack" style="stroke: #A80036; stroke-width: 1.0;"/><polygon fill="#FFFFFF" points="1038.56,399.3161,1033.5973,404.5479,1036.518,411.1411,1041.4807,405.9093,1038.56,399.3161" style="stroke: #A80036; stroke-width: 1.0;"/><text fill="#000000" font-family="sans-serif" font-size="13" lengthAdjust="spacingAndGlyphs" textLength="8" x="1028.8884" y="419.0854">1</text><text fill="#000000" font-family="sans-serif" font-size="13" lengthAdjust="spacingAndGlyphs" textLength="8" x="1017.6649" y="463.7099">1</text><!--link Scanner to KeyValueStore--><path d="M907.531,381.8001 C813.284,403.2241 705.212,428.3681 701,431.9531 C656.688,469.6671 689.729,509.5251 651,552.9531 C632.504,573.6931 608.478,590.9441 584.185,604.8601 " fill="none" id="Scanner-KeyValueStore" style="stroke: #A80036; stroke-width: 1.0;"/><polygon fill="#FFFFFF" points="920.429,378.8721,913.6922,376.3,908.7269,381.5293,915.4637,384.1014,920.429,378.8721" style="stroke: #A80036; stroke-width: 1.0;"/><text fill="#000000" font-family="sans-serif" font-size="13" lengthAdjust="spacingAndGlyphs" textLength="8" x="904.4723" y="393.1862">1</text><text fill="#000000" font-family="sans-serif" font-size="13" lengthAdjust="spacingAndGlyphs" textLength="8" x="591.4872" y="594.0395">1</text><!--link Scanner to PartyScriptAsset--><path d="M1097.38,409.2281 C1115.56,430.4401 1135.32,453.4901 1150.48,471.1771 " fill="none" id="Scanner-PartyScriptAsset" style="stroke: #A80036; stroke-width: 1.0;"/><polygon fill="#FFFFFF" points="1088.88,399.3161,1089.7478,406.4748,1096.6896,408.4271,1095.8218,401.2684,1088.88,399.3161" style="stroke: #A80036; stroke-width: 1.0;"/><text fill="#000000" font-family="sans-serif" font-size="13" lengthAdjust="spacingAndGlyphs" textLength="8" x="1085.9701" y="419.0854">1</text><text fill="#000000" font-family="sans-serif" font-size="13" lengthAdjust="spacingAndGlyphs" textLength="8" x="1136.3915" y="460.3834">1</text></g></svg>