<?xml version="1.0" encoding="UTF-8" standalone="no"?><svg xmlns="http://www.w3.org/2000/svg" xmlns:xlink="http://www.w3.org/1999/xlink" contentScriptType="application/ecmascript" contentStyleType="text/css" height="1011px" preserveAspectRatio="none" style="width:650px;height:1011px;" version="1.1" viewBox="0 0 650 1011" width="650px" zoomAndPan="magnify"><defs><filter height="300%" id="fa9yeao0jd7fb" width="300%" x="-1" y="-1"><feGaussianBlur result="blurOut" stdDeviation="2.0"/><feColorMatrix in="blurOut" result="blurOut2" type="matrix" values="0 0 0 0 0 0 0 0 0 0 0 0 0 0 0 0 0 0 .4 0"/><feOffset dx="4.0" dy="4.0" in="blurOut2" result="blurOut3"/><feBlend in="SourceGraphic" in2="blurOut3" mode="normal"/></filter></defs><g><text fill="#000000" font-family="sans-serif" font-size="18" lengthAdjust="spacingAndGlyphs" textLength="315" x="171" y="16.708">PartyScript Lifecycle (Environment)</text><!--cluster Engine--><rect fill="#808000" filter="url(#fa9yeao0jd7fb)" height="897" rx="12.5" ry="12.5" style="stroke: #A80036; stroke-width: 1.5;" width="565" x="30" y="103.9531"/><rect fill="#FFFFFF" height="864.7031" rx="12.5" ry="12.5" style="stroke: #FFFFFF; stroke-width: 1.0;" width="559" x="33" y="133.25"/><line style="stroke: #A80036; stroke-width: 1.5;" x1="30" x2="595" y1="130.25" y2="130.25"/><text fill="#000000" font-family="sans-serif" font-size="14" lengthAdjust="spacingAndGlyphs" textLength="48" x="281" y="120.9482">Engine</text><!--cluster Environment--><rect fill="#808000" filter="url(#fa9yeao0jd7fb)" height="592" rx="12.5" ry="12.5" style="stroke: #A80036; stroke-width: 1.5;" width="262" x="285" y="368.9531"/><rect fill="#FFFFFF" height="559.7031" rx="12.5" ry="12.5" style="stroke: #FFFFFF; stroke-width: 1.0;" width="256" x="288" y="398.25"/><line style="stroke: #A80036; stroke-width: 1.5;" x1="285" x2="547" y1="395.25" y2="395.25"/><text fill="#000000" font-family="sans-serif" font-size="14" lengthAdjust="spacingAndGlyphs" textLength="87" x="372.5" y="385.9482">Environment</text><path d="M322.5,162.9531 L322.5,203.2188 L507.5,203.2188 L507.5,172.9531 L497.5,162.9531 L322.5,162.9531 " fill="#FBFB77" filter="url(#fa9yeao0jd7fb)" style="stroke: #A80036; stroke-width: 1.0;"/><path d="M497.5,162.9531 L497.5,172.9531 L507.5,172.9531 L497.5,162.9531 " fill="#FBFB77" style="stroke: #A80036; stroke-width: 1.0;"/><text fill="#000000" font-family="sans-serif" font-size="13" lengthAdjust="spacingAndGlyphs" textLength="111" x="328.5" y="180.02">There have some</text><text fill="#000000" font-family="sans-serif" font-size="13" lengthAdjust="spacingAndGlyphs" textLength="160" x="332.5" y="195.1528">omitted states in Engine.</text><rect fill="#FEFECE" filter="url(#fa9yeao0jd7fb)" height="50" rx="12.5" ry="12.5" style="stroke: #A80036; stroke-width: 1.5;" width="184" x="98" y="263.9531"/><line style="stroke: #A80036; stroke-width: 1.5;" x1="98" x2="282" y1="290.25" y2="290.25"/><text fill="#000000" font-family="sans-serif" font-size="14" lengthAdjust="spacingAndGlyphs" textLength="164" x="108" y="281.9482">GeneratingEnvironment</text><rect fill="#FEFECE" filter="url(#fa9yeao0jd7fb)" height="50" rx="12.5" ry="12.5" style="stroke: #A80036; stroke-width: 1.5;" width="143" x="80.5" y="901.9531"/><line style="stroke: #A80036; stroke-width: 1.5;" x1="80.5" x2="223.5" y1="928.25" y2="928.25"/><text fill="#000000" font-family="sans-serif" font-size="14" lengthAdjust="spacingAndGlyphs" textLength="123" x="90.5" y="919.9482">CheckingLoopCall</text><rect fill="#FEFECE" filter="url(#fa9yeao0jd7fb)" height="50" rx="12.5" ry="12.5" style="stroke: #A80036; stroke-width: 1.5;" width="170" x="91" y="774.9531"/><line style="stroke: #A80036; stroke-width: 1.5;" x1="91" x2="261" y1="801.25" y2="801.25"/><text fill="#000000" font-family="sans-serif" font-size="14" lengthAdjust="spacingAndGlyphs" textLength="150" x="101" y="792.9482">FinalizingEnvironment</text><rect fill="#FEFECE" filter="url(#fa9yeao0jd7fb)" height="50" rx="12.5" ry="12.5" style="stroke: #A80036; stroke-width: 1.5;" width="148" x="105" y="640.9531"/><line style="stroke: #A80036; stroke-width: 1.5;" x1="105" x2="253" y1="667.25" y2="667.25"/><text fill="#000000" font-family="sans-serif" font-size="14" lengthAdjust="spacingAndGlyphs" textLength="128" x="115" y="658.9482">CheckingEnvStack</text><rect fill="#FEFECE" filter="url(#fa9yeao0jd7fb)" height="50" rx="12.5" ry="12.5" style="stroke: #A80036; stroke-width: 1.5;" width="129" x="129.5" y="515.9531"/><line style="stroke: #A80036; stroke-width: 1.5;" x1="129.5" x2="258.5" y1="542.25" y2="542.25"/><text fill="#000000" font-family="sans-serif" font-size="14" lengthAdjust="spacingAndGlyphs" textLength="109" x="139.5" y="533.9482">CheckingResult</text><ellipse cx="190" cy="182.9531" fill="#000000" filter="url(#fa9yeao0jd7fb)" rx="10" ry="10" style="stroke: none; stroke-width: 1.0;"/><rect fill="#FEFECE" filter="url(#fa9yeao0jd7fb)" height="64.2344" rx="12.5" ry="12.5" style="stroke: #A80036; stroke-width: 1.5;" width="206" x="317" y="633.9531"/><line style="stroke: #A80036; stroke-width: 1.5;" x1="317" x2="523" y1="660.25" y2="660.25"/><text fill="#000000" font-family="sans-serif" font-size="14" lengthAdjust="spacingAndGlyphs" textLength="144" x="348" y="651.9482">DeserializingScriptlet</text><text fill="#000000" font-family="sans-serif" font-size="12" lengthAdjust="spacingAndGlyphs" textLength="179" x="322" y="676.3887">gets the scriptlet from Asset</text><text fill="#000000" font-family="sans-serif" font-size="12" lengthAdjust="spacingAndGlyphs" textLength="182" x="326" y="690.3574">and copies to the exec stack</text><rect fill="#FEFECE" filter="url(#fa9yeao0jd7fb)" height="64.2344" rx="12.5" ry="12.5" style="stroke: #A80036; stroke-width: 1.5;" width="156" x="342" y="508.9531"/><line style="stroke: #A80036; stroke-width: 1.5;" x1="342" x2="498" y1="535.25" y2="535.25"/><text fill="#000000" font-family="sans-serif" font-size="14" lengthAdjust="spacingAndGlyphs" textLength="101" x="369.5" y="526.9482">BuildingStacks</text><text fill="#000000" font-family="sans-serif" font-size="12" lengthAdjust="spacingAndGlyphs" textLength="136" x="347" y="551.3887">creats the data stack</text><text fill="#000000" font-family="sans-serif" font-size="12" lengthAdjust="spacingAndGlyphs" textLength="120" x="351" y="565.3574">and the exec stack</text><ellipse cx="420" cy="437.9531" fill="#000000" filter="url(#fa9yeao0jd7fb)" rx="10" ry="10" style="stroke: none; stroke-width: 1.0;"/><ellipse cx="385" cy="926.9531" fill="none" filter="url(#fa9yeao0jd7fb)" rx="10" ry="10" style="stroke: #000000; stroke-width: 1.0;"/><ellipse cx="385.5" cy="927.4531" fill="#000000" rx="6" ry="6" style="stroke: none; stroke-width: 1.0;"/><rect fill="#808000" filter="url(#fa9yeao0jd7fb)" height="50" rx="12.5" ry="12.5" style="stroke: #A80036; stroke-width: 1.5;" width="77" x="346.5" y="774.9531"/><line style="stroke: #A80036; stroke-width: 1.5;" x1="346.5" x2="423.5" y1="801.25" y2="801.25"/><text fill="#000000" font-family="sans-serif" font-size="14" lengthAdjust="spacingAndGlyphs" textLength="57" x="356.5" y="792.9482">Scanner</text><ellipse cx="587" cy="38.9531" fill="#000000" filter="url(#fa9yeao0jd7fb)" rx="10" ry="10" style="stroke: none; stroke-width: 1.0;"/><ellipse cx="629" cy="288.9531" fill="none" filter="url(#fa9yeao0jd7fb)" rx="10" ry="10" style="stroke: #000000; stroke-width: 1.0;"/><ellipse cx="629.5" cy="289.4531" fill="#000000" rx="6" ry="6" style="stroke: none; stroke-width: 1.0;"/><!--link *start to Engine--><path d="M587,49.2701 C587,57.0446 587,69.0282 587,82.6783 C587,86.0909 587,89.6076 587,93.1887 C587,94.9793 587,96.7859 587,98.6037 C587,99.5127 587,100.4244 587,101.3382 C587,101.7951 587,102.2526 587,102.7105 C587,102.9395 587,103.1686 587,103.3978 " fill="none" id="*start-Engine" style="stroke: #A80036; stroke-width: 1.0;"/><polygon fill="#A80036" points="587,103.3978,591,94.3978,587,98.3978,583,94.3978,587,103.3978" style="stroke: #A80036; stroke-width: 1.0;"/><!--link GeneratingEnvironment to Environment--><path d="M247.471,313.9651 C263.656,323.6331 279.439,336.4781 289,352.9531 C291.2718,356.8676 293.052,361.0658 294.4264,365.4216 C294.77,366.5106 295.0882,367.6094 295.3825,368.7161 " fill="none" id="GeneratingEnvironment-Environment" style="stroke: #A80036; stroke-width: 1.0;"/><polygon fill="#A80036" points="295.3825,368.7161,296.9358,358.9905,294.0978,363.8839,289.2043,361.0459,295.3825,368.7161" style="stroke: #A80036; stroke-width: 1.0;"/><!--link DeserializingScriptlet to Scanner--><path d="M411.705,698.2351 C405.941,719.9741 398.315,748.7371 392.688,769.9591 " fill="none" id="DeserializingScriptlet-Scanner" style="stroke: #A80036; stroke-width: 1.0;"/><polygon fill="#A80036" points="391.375,774.9101,397.5502,767.2376,392.6578,770.0775,389.8179,765.1851,391.375,774.9101" style="stroke: #A80036; stroke-width: 1.0;"/><text fill="#000000" font-family="sans-serif" font-size="13" lengthAdjust="spacingAndGlyphs" textLength="30" x="405" y="741.02">scan</text><!--link BuildingStacks to DeserializingScriptlet--><path d="M420,572.9911 C420,589.8891 420,610.8911 420,628.5581 " fill="none" id="BuildingStacks-DeserializingScriptlet" style="stroke: #A80036; stroke-width: 1.0;"/><polygon fill="#A80036" points="420,633.9251,424,624.9251,420,628.9251,416,624.9251,420,633.9251" style="stroke: #A80036; stroke-width: 1.0;"/><!--link *start*Environment to BuildingStacks--><path d="M420,448.2741 C420,460.7361 420,483.5511 420,503.3031 " fill="none" id="*start*Environment-BuildingStacks" style="stroke: #A80036; stroke-width: 1.0;"/><polygon fill="#A80036" points="420,508.5151,424,499.5151,420,503.5151,416,499.5151,420,508.5151" style="stroke: #A80036; stroke-width: 1.0;"/><!--link Scanner to *end*Environment--><path d="M385,825.0541 C385,850.7131 385,890.4701 385,911.6031 " fill="none" id="Scanner-*end*Environment" style="stroke: #A80036; stroke-width: 1.0;"/><polygon fill="#A80036" points="385,916.7991,389,907.7991,385,911.7991,381,907.7991,385,916.7991" style="stroke: #A80036; stroke-width: 1.0;"/><!--link Scanner to CheckingLoopCall--><path d="M346.31,823.1261 C344.868,823.7671 343.428,824.3791 342,824.9531 C292.988,844.6501 273.187,829.3241 227,854.9531 C207.199,865.9401 188.681,883.3671 175,898.2061 " fill="none" id="Scanner-CheckingLoopCall" style="stroke: #A80036; stroke-width: 1.0;"/><polygon fill="#A80036" points="171.628,901.9171,180.6398,897.9437,174.9894,898.2157,174.7174,892.5654,171.628,901.9171" style="stroke: #A80036; stroke-width: 1.0;"/><text fill="#000000" font-family="sans-serif" font-size="13" lengthAdjust="spacingAndGlyphs" textLength="148" x="228" y="868.02">execute (recursive call)</text><!--link FinalizingEnvironment to Scanner--><path d="M261.008,799.9531 C288.536,799.9531 317.934,799.9531 341.193,799.9531 " fill="none" id="FinalizingEnvironment-Scanner" style="stroke: #A80036; stroke-width: 1.0;"/><polygon fill="#A80036" points="346.362,799.9531,337.362,795.9531,341.362,799.9531,337.362,803.9531,346.362,799.9531" style="stroke: #A80036; stroke-width: 1.0;"/><text fill="#000000" font-family="sans-serif" font-size="13" lengthAdjust="spacingAndGlyphs" textLength="49" x="279.25" y="793.02">resume</text><!--link GeneratingEnvironment to CheckingLoopCall--><path d="M141.131,317.0331 C102.4852,342.4321 55,384.3441 55,436.9531 C55,436.9531 55,436.9531 55,800.9531 C55,842.9811 89.6477,879.4211 117.528,901.9411 " fill="none" id="GeneratingEnvironment-CheckingLoopCall" style="stroke: #A80036; stroke-width: 1.0;"/><polygon fill="#A80036" points="145.796,314.0171,136.0662,315.5441,141.597,316.7317,140.4095,322.2625,145.796,314.0171" style="stroke: #A80036; stroke-width: 1.0;"/><!--link CheckingEnvStack to FinalizingEnvironment--><path d="M178.45,691.1641 C177.947,713.3061 177.201,746.1091 176.665,769.7081 " fill="none" id="CheckingEnvStack-FinalizingEnvironment" style="stroke: #A80036; stroke-width: 1.0;"/><polygon fill="#A80036" points="176.547,774.8961,180.7517,765.9899,176.6613,769.8974,172.7538,765.807,176.547,774.8961" style="stroke: #A80036; stroke-width: 1.0;"/><!--link CheckingResult to CheckingEnvStack--><path d="M191.072,565.9611 C188.641,585.8961 185.174,614.3291 182.578,635.6131 " fill="none" id="CheckingResult-CheckingEnvStack" style="stroke: #A80036; stroke-width: 1.0;"/><polygon fill="#A80036" points="181.972,640.5861,187.0329,632.137,182.5778,635.623,179.0918,631.1678,181.972,640.5861" style="stroke: #A80036; stroke-width: 1.0;"/><!--link Environment to CheckingResult--><path d="M284.8889,453.6371 C284.6069,454.0144 284.3234,454.3912 284.0385,454.7677 C283.4686,455.5207 282.8929,456.2722 282.3116,457.0219 C279.9867,460.0208 277.5738,462.9923 275.0952,465.9266 C270.1382,471.7951 264.919,477.5144 259.617,483.005 C249.013,493.9861 238.078,504.0521 228.248,512.5661 " fill="none" id="Environment-CheckingResult" style="stroke: #A80036; stroke-width: 1.0;"/><polygon fill="#A80036" points="224.379,515.8871,233.814,513.0621,228.1736,512.6312,228.6045,506.9907,224.379,515.8871" style="stroke: #A80036; stroke-width: 1.0;"/><!--link *start*Engine to GeneratingEnvironment--><path d="M190,193.1821 C190,207.7251 190,236.5901 190,258.6611 " fill="none" id="*start*Engine-GeneratingEnvironment" style="stroke: #A80036; stroke-width: 1.0;"/><polygon fill="#A80036" points="190,263.8281,194,254.8281,190,258.8281,186,254.8281,190,263.8281" style="stroke: #A80036; stroke-width: 1.0;"/><!--link Engine to *end--><path d="M595.0297,203.8358 C595.08,203.9603 595.1304,204.0852 595.181,204.2105 C595.2822,204.4611 595.3841,204.7133 595.4866,204.967 C595.6915,205.4745 595.8989,205.9882 596.1087,206.5077 C597.7871,210.6637 599.6167,215.1941 601.5254,219.9204 C609.16,238.8254 618.06,260.8641 623.613,274.6151 " fill="none" id="Engine-*end" style="stroke: #A80036; stroke-width: 1.0;"/><polygon fill="#A80036" points="625.523,279.3431,625.8604,269.5,623.65,274.7072,618.4429,272.4968,625.523,279.3431" style="stroke: #A80036; stroke-width: 1.0;"/></g></svg>