<?xml version="1.0" encoding="UTF-8" standalone="no"?><svg xmlns="http://www.w3.org/2000/svg" xmlns:xlink="http://www.w3.org/1999/xlink" contentScriptType="application/ecmascript" contentStyleType="text/css" height="1364px" preserveAspectRatio="none" style="width:1088px;height:1364px;" version="1.1" viewBox="0 0 1088 1364" width="1088px" zoomAndPan="magnify"><defs><filter height="300%" id="frukluik2qbyn" width="300%" x="-1" y="-1"><feGaussianBlur result="blurOut" stdDeviation="2.0"/><feColorMatrix in="blurOut" result="blurOut2" type="matrix" values="0 0 0 0 0 0 0 0 0 0 0 0 0 0 0 0 0 0 .4 0"/><feOffset dx="4.0" dy="4.0" in="blurOut2" result="blurOut3"/><feBlend in="SourceGraphic" in2="blurOut3" mode="normal"/></filter></defs><g><text fill="#000000" font-family="sans-serif" font-size="18" lengthAdjust="spacingAndGlyphs" textLength="272" x="411.5" y="16.708">PartyScript Lifecycle (Scanner)</text><!--cluster Engine--><rect fill="#808000" filter="url(#frukluik2qbyn)" height="1250" rx="12.5" ry="12.5" style="stroke: #A80036; stroke-width: 1.5;" width="1003" x="30" y="103.9531"/><rect fill="#FFFFFF" height="1217.7031" rx="12.5" ry="12.5" style="stroke: #FFFFFF; stroke-width: 1.0;" width="997" x="33" y="133.25"/><line style="stroke: #A80036; stroke-width: 1.5;" x1="30" x2="1033" y1="130.25" y2="130.25"/><text fill="#000000" font-family="sans-serif" font-size="14" lengthAdjust="spacingAndGlyphs" textLength="48" x="500" y="120.9482">Engine</text><!--cluster Environment--><rect fill="#808000" filter="url(#frukluik2qbyn)" height="945" rx="12.5" ry="12.5" style="stroke: #A80036; stroke-width: 1.5;" width="555" x="278" y="368.9531"/><rect fill="#FFFFFF" height="912.7031" rx="12.5" ry="12.5" style="stroke: #FFFFFF; stroke-width: 1.0;" width="549" x="281" y="398.25"/><line style="stroke: #A80036; stroke-width: 1.5;" x1="278" x2="833" y1="395.25" y2="395.25"/><text fill="#000000" font-family="sans-serif" font-size="14" lengthAdjust="spacingAndGlyphs" textLength="87" x="512" y="385.9482">Environment</text><!--cluster Scanner--><rect fill="#808000" filter="url(#frukluik2qbyn)" height="751" rx="12.5" ry="12.5" style="stroke: #A80036; stroke-width: 1.5;" width="439" x="326" y="522.9531"/><rect fill="#FFFFFF" height="718.7031" rx="12.5" ry="12.5" style="stroke: #FFFFFF; stroke-width: 1.0;" width="433" x="329" y="552.25"/><line style="stroke: #A80036; stroke-width: 1.5;" x1="326" x2="765" y1="549.25" y2="549.25"/><text fill="#000000" font-family="sans-serif" font-size="14" lengthAdjust="spacingAndGlyphs" textLength="57" x="514" y="539.9482">Scanner</text><path d="M744.5,162.9531 L744.5,203.2188 L929.5,203.2188 L929.5,172.9531 L919.5,162.9531 L744.5,162.9531 " fill="#FBFB77" filter="url(#frukluik2qbyn)" style="stroke: #A80036; stroke-width: 1.0;"/><path d="M919.5,162.9531 L919.5,172.9531 L929.5,172.9531 L919.5,162.9531 " fill="#FBFB77" style="stroke: #A80036; stroke-width: 1.0;"/><text fill="#000000" font-family="sans-serif" font-size="13" lengthAdjust="spacingAndGlyphs" textLength="111" x="750.5" y="180.02">There have some</text><text fill="#000000" font-family="sans-serif" font-size="13" lengthAdjust="spacingAndGlyphs" textLength="160" x="754.5" y="195.1528">omitted states in Engine.</text><rect fill="#FEFECE" filter="url(#frukluik2qbyn)" height="50" rx="12.5" ry="12.5" style="stroke: #A80036; stroke-width: 1.5;" width="184" x="371" y="263.9531"/><line style="stroke: #A80036; stroke-width: 1.5;" x1="371" x2="555" y1="290.25" y2="290.25"/><text fill="#000000" font-family="sans-serif" font-size="14" lengthAdjust="spacingAndGlyphs" textLength="164" x="381" y="281.9482">GeneratingEnvironment</text><rect fill="#FEFECE" filter="url(#frukluik2qbyn)" height="50" rx="12.5" ry="12.5" style="stroke: #A80036; stroke-width: 1.5;" width="170" x="69" y="880.9531"/><line style="stroke: #A80036; stroke-width: 1.5;" x1="69" x2="239" y1="907.25" y2="907.25"/><text fill="#000000" font-family="sans-serif" font-size="14" lengthAdjust="spacingAndGlyphs" textLength="150" x="79" y="898.9482">FinalizingEnvironment</text><rect fill="#FEFECE" filter="url(#frukluik2qbyn)" height="50" rx="12.5" ry="12.5" style="stroke: #A80036; stroke-width: 1.5;" width="143" x="857.5" y="1007.9531"/><line style="stroke: #A80036; stroke-width: 1.5;" x1="857.5" x2="1000.5" y1="1034.25" y2="1034.25"/><text fill="#000000" font-family="sans-serif" font-size="14" lengthAdjust="spacingAndGlyphs" textLength="123" x="867.5" y="1025.9482">CheckingLoopCall</text><rect fill="#FEFECE" filter="url(#frukluik2qbyn)" height="50" rx="12.5" ry="12.5" style="stroke: #A80036; stroke-width: 1.5;" width="148" x="54" y="713.9531"/><line style="stroke: #A80036; stroke-width: 1.5;" x1="54" x2="202" y1="740.25" y2="740.25"/><text fill="#000000" font-family="sans-serif" font-size="14" lengthAdjust="spacingAndGlyphs" textLength="128" x="64" y="731.9482">CheckingEnvStack</text><rect fill="#FEFECE" filter="url(#frukluik2qbyn)" height="50" rx="12.5" ry="12.5" style="stroke: #A80036; stroke-width: 1.5;" width="129" x="108.5" y="588.9531"/><line style="stroke: #A80036; stroke-width: 1.5;" x1="108.5" x2="237.5" y1="615.25" y2="615.25"/><text fill="#000000" font-family="sans-serif" font-size="14" lengthAdjust="spacingAndGlyphs" textLength="109" x="118.5" y="606.9482">CheckingResult</text><ellipse cx="463" cy="182.9531" fill="#000000" filter="url(#frukluik2qbyn)" rx="10" ry="10" style="stroke: none; stroke-width: 1.0;"/><path d="M482.5,427.9531 L482.5,468.2188 L705.5,468.2188 L705.5,437.9531 L695.5,427.9531 L482.5,427.9531 " fill="#FBFB77" filter="url(#frukluik2qbyn)" style="stroke: #A80036; stroke-width: 1.0;"/><path d="M695.5,427.9531 L695.5,437.9531 L705.5,437.9531 L695.5,427.9531 " fill="#FBFB77" style="stroke: #A80036; stroke-width: 1.0;"/><text fill="#000000" font-family="sans-serif" font-size="13" lengthAdjust="spacingAndGlyphs" textLength="111" x="488.5" y="445.02">There have some</text><text fill="#000000" font-family="sans-serif" font-size="13" lengthAdjust="spacingAndGlyphs" textLength="198" x="492.5" y="460.1528">omitted states in Environment.</text><ellipse cx="334" cy="447.9531" fill="#000000" filter="url(#frukluik2qbyn)" rx="10" ry="10" style="stroke: none; stroke-width: 1.0;"/><ellipse cx="799" cy="738.9531" fill="none" filter="url(#frukluik2qbyn)" rx="10" ry="10" style="stroke: #000000; stroke-width: 1.0;"/><ellipse cx="799.5" cy="739.4531" fill="#000000" rx="6" ry="6" style="stroke: none; stroke-width: 1.0;"/><rect fill="#FEFECE" filter="url(#frukluik2qbyn)" height="50.2656" rx="12.5" ry="12.5" style="stroke: #A80036; stroke-width: 1.5;" width="162" x="508" y="1118.9531"/><line style="stroke: #A80036; stroke-width: 1.5;" x1="508" x2="670" y1="1145.25" y2="1145.25"/><text fill="#000000" font-family="sans-serif" font-size="14" lengthAdjust="spacingAndGlyphs" textLength="142" x="518" y="1136.9482">SettingRejectionFlag</text><text fill="#000000" font-family="sans-serif" font-size="12" lengthAdjust="spacingAndGlyphs" textLength="106" x="513" y="1161.3887">Means error exit.</text><ellipse cx="369" cy="1239.9531" fill="none" filter="url(#frukluik2qbyn)" rx="10" ry="10" style="stroke: #000000; stroke-width: 1.0;"/><ellipse cx="369.5" cy="1240.4531" fill="#000000" rx="6" ry="6" style="stroke: none; stroke-width: 1.0;"/><rect fill="#FEFECE" filter="url(#frukluik2qbyn)" height="50.2656" rx="12.5" ry="12.5" style="stroke: #A80036; stroke-width: 1.5;" width="218" x="358" y="800.9531"/><line style="stroke: #A80036; stroke-width: 1.5;" x1="358" x2="576" y1="827.25" y2="827.25"/><text fill="#000000" font-family="sans-serif" font-size="14" lengthAdjust="spacingAndGlyphs" textLength="135" x="399.5" y="818.9482">CheckingDataStack</text><text fill="#000000" font-family="sans-serif" font-size="12" lengthAdjust="spacingAndGlyphs" textLength="198" x="363" y="843.3887">Checks if the result is accepted</text><rect fill="#FEFECE" filter="url(#frukluik2qbyn)" height="64.2344" rx="12.5" ry="12.5" style="stroke: #A80036; stroke-width: 1.5;" width="172" x="369" y="581.9531"/><line style="stroke: #A80036; stroke-width: 1.5;" x1="369" x2="541" y1="608.25" y2="608.25"/><text fill="#000000" font-family="sans-serif" font-size="14" lengthAdjust="spacingAndGlyphs" textLength="136" x="387" y="599.9482">CheckingExecStack</text><text fill="#000000" font-family="sans-serif" font-size="12" lengthAdjust="spacingAndGlyphs" textLength="152" x="374" y="624.3887">Checks if the exec stack</text><text fill="#000000" font-family="sans-serif" font-size="12" lengthAdjust="spacingAndGlyphs" textLength="102" x="378" y="638.3574">does not empty.</text><rect fill="#FEFECE" filter="url(#frukluik2qbyn)" height="64.2344" rx="12.5" ry="12.5" style="stroke: #A80036; stroke-width: 1.5;" width="271" x="469.5" y="706.9531"/><line style="stroke: #A80036; stroke-width: 1.5;" x1="469.5" x2="740.5" y1="733.25" y2="733.25"/><text fill="#000000" font-family="sans-serif" font-size="14" lengthAdjust="spacingAndGlyphs" textLength="128" x="541" y="724.9482">PoppingExecStack</text><text fill="#000000" font-family="sans-serif" font-size="12" lengthAdjust="spacingAndGlyphs" textLength="192" x="474.5" y="749.3887">Pops data from the exec stack</text><text fill="#000000" font-family="sans-serif" font-size="12" lengthAdjust="spacingAndGlyphs" textLength="247" x="478.5" y="763.3574">and execute if the atom is an operator.</text><rect fill="#FEFECE" filter="url(#frukluik2qbyn)" height="50" rx="12.5" ry="12.5" style="stroke: #A80036; stroke-width: 1.5;" width="188" x="398" y="1007.9531"/><line style="stroke: #A80036; stroke-width: 1.5;" x1="398" x2="586" y1="1034.25" y2="1034.25"/><text fill="#000000" font-family="sans-serif" font-size="14" lengthAdjust="spacingAndGlyphs" textLength="168" x="408" y="1025.9482">OperatingKeyValueStore</text><rect fill="#FEFECE" filter="url(#frukluik2qbyn)" height="50" rx="12.5" ry="12.5" style="stroke: #A80036; stroke-width: 1.5;" width="158" x="583" y="880.9531"/><line style="stroke: #A80036; stroke-width: 1.5;" x1="583" x2="741" y1="907.25" y2="907.25"/><text fill="#000000" font-family="sans-serif" font-size="14" lengthAdjust="spacingAndGlyphs" textLength="138" x="593" y="898.9482">OperatingDataStack</text><ellipse cx="605" cy="613.9531" fill="#000000" filter="url(#frukluik2qbyn)" rx="10" ry="10" style="stroke: none; stroke-width: 1.0;"/><ellipse cx="1025" cy="38.9531" fill="#000000" filter="url(#frukluik2qbyn)" rx="10" ry="10" style="stroke: none; stroke-width: 1.0;"/><ellipse cx="1067" cy="288.9531" fill="none" filter="url(#frukluik2qbyn)" rx="10" ry="10" style="stroke: #000000; stroke-width: 1.0;"/><ellipse cx="1067.5" cy="289.4531" fill="#000000" rx="6" ry="6" style="stroke: none; stroke-width: 1.0;"/><!--link *start to Engine--><path d="M1025,49.2731 C1025,57.0456 1025,69.0281 1025,82.6778 C1025,86.0902 1025,89.6069 1025,93.1879 C1025,94.9785 1025,96.7852 1025,98.603 C1025,99.5119 1025,100.4236 1025,101.3374 C1025,101.7944 1025,102.2518 1025,102.7098 C1025,102.9387 1025,103.1678 1025,103.397 " fill="none" id="*start-Engine" style="stroke: #A80036; stroke-width: 1.0;"/><polygon fill="#A80036" points="1025,103.397,1029,94.397,1025,98.397,1021,94.397,1025,103.397" style="stroke: #A80036; stroke-width: 1.0;"/><!--link GeneratingEnvironment to Environment--><path d="M370.985,304.2531 C341.97,313.4031 312.652,328.3931 294,352.9531 C290.88,357.062 288.4067,361.5829 286.4682,366.3523 C286.2258,366.9484 285.9919,367.5485 285.7661,368.1521 C285.7096,368.303 285.6537,368.4541 285.5982,368.6055 " fill="none" id="GeneratingEnvironment-Environment" style="stroke: #A80036; stroke-width: 1.0;"/><polygon fill="#A80036" points="285.5982,368.6055,292.4499,361.5306,287.3181,363.9106,284.9381,358.7788,285.5982,368.6055" style="stroke: #A80036; stroke-width: 1.0;"/><!--link FinalizingEnvironment to Scanner--><path d="M170.951,880.6701 C192.524,849.7221 231.045,794.3151 264.7934,745.009 C281.6676,720.3559 297.3486,697.2281 309.1214,679.4455 C315.0078,670.5541 319.9171,662.9991 323.51,657.2579 C324.4082,655.8226 325.2242,654.5006 325.9526,653.2995 " fill="none" id="FinalizingEnvironment-Scanner" style="stroke: #A80036; stroke-width: 1.0;"/><polygon fill="#A80036" points="325.9526,653.2995,317.8656,658.9211,323.36,657.5749,324.7062,663.0692,325.9526,653.2995" style="stroke: #A80036; stroke-width: 1.0;"/><text fill="#000000" font-family="sans-serif" font-size="13" lengthAdjust="spacingAndGlyphs" textLength="49" x="291" y="743.52">resume</text><!--link GeneratingEnvironment to CheckingLoopCall--><path d="M560.168,298.5731 C651.973,308.1831 781.858,326.0031 825,352.9531 C868.73,380.2741 893,395.3901 893,446.9531 C893,446.9531 893,446.9531 893,906.9531 C893,943.0871 907.062,982.8811 917.609,1007.6461 " fill="none" id="GeneratingEnvironment-CheckingLoopCall" style="stroke: #A80036; stroke-width: 1.0;"/><polygon fill="#A80036" points="555.003,298.0331,563.5422,302.9404,559.9763,298.549,564.3677,294.9831,555.003,298.0331" style="stroke: #A80036; stroke-width: 1.0;"/><!--link CheckingEnvStack to FinalizingEnvironment--><path d="M131.836,764.2991 C136.497,793.8741 144.354,843.7351 149.353,875.4591 " fill="none" id="CheckingEnvStack-FinalizingEnvironment" style="stroke: #A80036; stroke-width: 1.0;"/><polygon fill="#A80036" points="150.19,880.7761,152.7401,871.2631,149.4116,875.8371,144.8376,872.5086,150.19,880.7761" style="stroke: #A80036; stroke-width: 1.0;"/><!--link CheckingResult to CheckingEnvStack--><path d="M164.217,638.9611 C156.893,658.9801 146.433,687.5691 138.636,708.8821 " fill="none" id="CheckingResult-CheckingEnvStack" style="stroke: #A80036; stroke-width: 1.0;"/><polygon fill="#A80036" points="136.915,713.5861,143.7627,706.5073,138.6322,708.8903,136.2493,703.7598,136.915,713.5861" style="stroke: #A80036; stroke-width: 1.0;"/><!--link Environment to CheckingResult--><path d="M277.8356,460.8024 C277.7484,460.9289 277.6606,461.0564 277.5722,461.1847 C277.3953,461.4413 277.2162,461.7014 277.0346,461.9648 C276.3086,463.0186 275.5452,464.1265 274.747,465.2849 C268.3618,474.5519 259.7526,487.0468 250.2314,500.8651 C231.189,528.5019 208.499,561.4326 192.659,584.4221 " fill="none" id="Environment-CheckingResult" style="stroke: #A80036; stroke-width: 1.0;"/><polygon fill="#A80036" points="189.681,588.7431,198.0815,583.602,192.5181,584.626,191.4941,579.0626,189.681,588.7431" style="stroke: #A80036; stroke-width: 1.0;"/><!--link SettingRejectionFlag to *end*Scanner--><path d="M532.63,1169.0381 C482.325,1190.5321 412.207,1220.4921 382.819,1233.0481 " fill="none" id="SettingRejectionFlag-*end*Scanner" style="stroke: #A80036; stroke-width: 1.0;"/><polygon fill="#A80036" points="378.14,1235.0481,387.9878,1235.1901,382.7379,1233.0835,384.8445,1227.8336,378.14,1235.0481" style="stroke: #A80036; stroke-width: 1.0;"/><!--link CheckingDataStack to *end*Scanner--><path d="M433.777,851.0761 C403.016,876.4711 362,919.5081 362,968.4531 C362,968.4531 362,968.4531 362,1144.9531 C362,1173.2791 365.2,1206.2741 367.273,1224.6751 " fill="none" id="CheckingDataStack-*end*Scanner" style="stroke: #A80036; stroke-width: 1.0;"/><polygon fill="#A80036" points="367.875,1229.8951,370.8175,1220.4961,367.3022,1224.928,362.8702,1221.4127,367.875,1229.8951" style="stroke: #A80036; stroke-width: 1.0;"/><!--link CheckingExecStack to PoppingExecStack--><path d="M481.608,645.9911 C501.204,663.6171 528.042,685.7101 551.824,703.8231 " fill="none" id="CheckingExecStack-PoppingExecStack" style="stroke: #A80036; stroke-width: 1.0;"/><polygon fill="#A80036" points="555.918,706.9251,551.1618,698.3008,551.9333,703.9048,546.3293,704.6763,555.918,706.9251" style="stroke: #A80036; stroke-width: 1.0;"/><!--link PoppingExecStack to CheckingExecStack--><path d="M579.064,706.9251 C559.583,689.3001 532.751,667.2081 508.869,649.0931 " fill="none" id="PoppingExecStack-CheckingExecStack" style="stroke: #A80036; stroke-width: 1.0;"/><polygon fill="#A80036" points="504.756,645.9911,509.5314,654.6048,508.7474,649.0025,514.3497,648.2185,504.756,645.9911" style="stroke: #A80036; stroke-width: 1.0;"/><!--link CheckingExecStack to CheckingDataStack--><path d="M409.404,646.0311 C400.324,654.5811 392.042,664.6571 387,675.9531 C369.791,714.5091 367.184,733.6701 387,770.9531 C392.643,781.5701 401.407,790.4771 411.099,797.7991 " fill="none" id="CheckingExecStack-CheckingDataStack" style="stroke: #A80036; stroke-width: 1.0;"/><polygon fill="#A80036" points="415.303,800.8411,410.3563,792.3247,411.2522,797.9101,405.6667,798.806,415.303,800.8411" style="stroke: #A80036; stroke-width: 1.0;"/><!--link OperatingKeyValueStore to SettingRejectionFlag--><path d="M513.527,1058.1441 C528.472,1074.9371 548.426,1097.3591 564.063,1114.9311 " fill="none" id="OperatingKeyValueStore-SettingRejectionFlag" style="stroke: #A80036; stroke-width: 1.0;"/><polygon fill="#A80036" points="567.533,1118.8301,564.5382,1109.4476,564.2091,1115.0949,558.5619,1114.7658,567.533,1118.8301" style="stroke: #A80036; stroke-width: 1.0;"/><!--link OperatingKeyValueStore to CheckingExecStack--><path d="M498.966,1007.8551 C508.425,977.1111 527.057,922.8991 552,880.9531 C560.871,866.0351 571.092,867.2721 577,850.9531 C584.565,830.0581 591.1,818.1291 577,800.9531 C533.587,748.0661 469.413,823.8401 426,770.9531 C398.233,737.1261 416.097,685.2061 433.651,650.6761 " fill="none" id="OperatingKeyValueStore-CheckingExecStack" style="stroke: #A80036; stroke-width: 1.0;"/><polygon fill="#A80036" points="436.009,646.1331,428.3136,652.2798,433.7063,650.5713,435.4148,655.964,436.009,646.1331" style="stroke: #A80036; stroke-width: 1.0;"/><!--link OperatingDataStack to OperatingKeyValueStore--><path d="M629.222,931.0541 C600.53,952.1511 558.877,982.7791 528.997,1004.7491 " fill="none" id="OperatingDataStack-OperatingKeyValueStore" style="stroke: #A80036; stroke-width: 1.0;"/><polygon fill="#A80036" points="524.677,1007.9261,534.2977,1005.8184,528.7056,1004.9647,529.5593,999.3726,524.677,1007.9261" style="stroke: #A80036; stroke-width: 1.0;"/><!--link OperatingDataStack to CheckingLoopCall--><path d="M681.005,931.2511 C694.303,946.7101 713.332,966.0011 734,977.9531 C770.234,998.9051 814.981,1012.0521 852.468,1020.1201 " fill="none" id="OperatingDataStack-CheckingLoopCall" style="stroke: #A80036; stroke-width: 1.0;"/><polygon fill="#A80036" points="857.471,1021.1761,849.4916,1015.403,852.5789,1020.1431,847.8388,1023.2304,857.471,1021.1761" style="stroke: #A80036; stroke-width: 1.0;"/><text fill="#000000" font-family="sans-serif" font-size="13" lengthAdjust="spacingAndGlyphs" textLength="148" x="735" y="974.02">execute (recursive call)</text><!--link OperatingDataStack to CheckingExecStack--><path d="M639.609,880.9151 C631.516,871.7991 622.526,861.1551 615,850.9531 C599.478,829.9121 605.286,816.1381 584,800.9531 C535.022,766.0141 489.533,817.9731 452,770.9531 C425.262,737.4571 432.721,685.7771 442.319,651.1841 " fill="none" id="OperatingDataStack-CheckingExecStack" style="stroke: #A80036; stroke-width: 1.0;"/><polygon fill="#A80036" points="443.747,646.2081,437.421,653.7568,442.3687,651.0144,445.111,655.9621,443.747,646.2081" style="stroke: #A80036; stroke-width: 1.0;"/><!--link OperatingDataStack to SettingRejectionFlag--><path d="M661.598,930.9921 C660.198,966.8631 654.384,1035.8601 631,1088.9531 C627.042,1097.9411 621.258,1106.7561 615.242,1114.5731 " fill="none" id="OperatingDataStack-SettingRejectionFlag" style="stroke: #A80036; stroke-width: 1.0;"/><polygon fill="#A80036" points="611.886,1118.8071,620.611,1114.2383,614.9917,1114.8886,614.3414,1109.2693,611.886,1118.8071" style="stroke: #A80036; stroke-width: 1.0;"/><!--link PoppingExecStack to OperatingDataStack--><path d="M613.658,771.3441 C620.065,793.7351 629.326,824.4471 639,850.9531 C641.98,859.1181 645.527,867.8371 648.934,875.8341 " fill="none" id="PoppingExecStack-OperatingDataStack" style="stroke: #A80036; stroke-width: 1.0;"/><polygon fill="#A80036" points="651.03,880.7091,651.148,870.861,649.0542,876.1161,643.7991,874.0223,651.03,880.7091" style="stroke: #A80036; stroke-width: 1.0;"/><!--link PoppingExecStack to SettingRejectionFlag--><path d="M605.831,771.4001 C605.319,794.3691 602.241,825.7661 591,850.9531 C583.809,867.0651 571.167,864.4221 565,880.9531 C544.408,936.1541 589.613,950.5771 603,1007.9531 C608.049,1029.5941 604.812,1035.8051 603,1057.9531 C601.464,1076.7301 598.05,1097.6091 594.978,1113.9751 " fill="none" id="PoppingExecStack-SettingRejectionFlag" style="stroke: #A80036; stroke-width: 1.0;"/><polygon fill="#A80036" points="594.038,1118.9011,599.654,1110.8103,594.9751,1113.9897,591.7957,1109.3109,594.038,1118.9011" style="stroke: #A80036; stroke-width: 1.0;"/><!--link *start*Scanner to PoppingExecStack--><path d="M605,624.1981 C605,640.4351 605,674.8911 605,701.6511 " fill="none" id="*start*Scanner-PoppingExecStack" style="stroke: #A80036; stroke-width: 1.0;"/><polygon fill="#A80036" points="605,706.8931,609,697.8931,605,701.8931,601,697.8931,605,706.8931" style="stroke: #A80036; stroke-width: 1.0;"/><!--link *start*Environment to Scanner--><path d="M334,458.2401 C334,466.7779 334,480.4832 334,496.2956 C334,504.2018 334,512.6348 334,521.212 C334,521.748 334,522.2847 334,522.8218 " fill="none" id="*start*Environment-Scanner" style="stroke: #A80036; stroke-width: 1.0;"/><polygon fill="#A80036" points="334,522.8218,338,513.8218,334,517.8218,330,513.8218,334,522.8218" style="stroke: #A80036; stroke-width: 1.0;"/><!--link Scanner to *end*Environment--><path d="M765.9427,669.2027 C766.3103,669.3837 766.6751,669.5667 767.037,669.7519 C767.7609,670.1222 768.4731,670.5009 769.1735,670.8881 C771.9752,672.4369 774.5883,674.1222 777,675.9531 C791.746,687.1471 796.638,709.0221 798.243,723.5651 " fill="none" id="Scanner-*end*Environment" style="stroke: #A80036; stroke-width: 1.0;"/><polygon fill="#A80036" points="798.698,728.5571,801.8663,719.2318,798.2451,723.5777,793.8992,719.9565,798.698,728.5571" style="stroke: #A80036; stroke-width: 1.0;"/><!--link *start*Engine to GeneratingEnvironment--><path d="M463,193.1831 C463,207.7231 463,236.5931 463,258.6631 " fill="none" id="*start*Engine-GeneratingEnvironment" style="stroke: #A80036; stroke-width: 1.0;"/><polygon fill="#A80036" points="463,263.8231,467,254.8231,463,258.8231,459,254.8231,463,263.8231" style="stroke: #A80036; stroke-width: 1.0;"/><!--link Engine to *end--><path d="M1033.029,203.8385 C1033.0793,203.963 1033.1297,204.0879 1033.1803,204.2131 C1033.2815,204.4637 1033.3834,204.7159 1033.4858,204.9696 C1033.6908,205.477 1033.8982,205.9906 1034.108,206.5101 C1035.7866,210.6659 1037.6163,215.1959 1039.525,219.9219 C1047.16,238.8256 1056.06,260.8631 1061.61,274.6131 " fill="none" id="Engine-*end" style="stroke: #A80036; stroke-width: 1.0;"/><polygon fill="#A80036" points="1063.52,279.3431,1063.8548,269.5,1061.6458,274.7077,1056.4381,272.4987,1063.52,279.3431" style="stroke: #A80036; stroke-width: 1.0;"/></g></svg>