<?xml version="1.0" encoding="UTF-8" standalone="no"?><svg xmlns="http://www.w3.org/2000/svg" xmlns:xlink="http://www.w3.org/1999/xlink" contentScriptType="application/ecmascript" contentStyleType="text/css" height="1066px" preserveAspectRatio="none" style="width:745px;height:1066px;" version="1.1" viewBox="0 0 745 1066" width="745px" zoomAndPan="magnify"><defs><filter height="300%" id="f120o8170z4ak6" width="300%" x="-1" y="-1"><feGaussianBlur result="blurOut" stdDeviation="2.0"/><feColorMatrix in="blurOut" result="blurOut2" type="matrix" values="0 0 0 0 0 0 0 0 0 0 0 0 0 0 0 0 0 0 .4 0"/><feOffset dx="4.0" dy="4.0" in="blurOut2" result="blurOut3"/><feBlend in="SourceGraphic" in2="blurOut3" mode="normal"/></filter></defs><g><text fill="#000000" font-family="sans-serif" font-size="18" lengthAdjust="spacingAndGlyphs" textLength="261" x="245" y="16.708">PartyScript Lifecycle (Engine)</text><ellipse cx="369.5" cy="38.9531" fill="#000000" filter="url(#f120o8170z4ak6)" rx="10" ry="10" style="stroke: none; stroke-width: 1.0;"/><ellipse cx="369.5" cy="1045.9531" fill="none" filter="url(#f120o8170z4ak6)" rx="10" ry="10" style="stroke: #000000; stroke-width: 1.0;"/><ellipse cx="370" cy="1046.4531" fill="#000000" rx="6" ry="6" style="stroke: none; stroke-width: 1.0;"/><rect fill="#808000" filter="url(#f120o8170z4ak6)" height="867.2969" rx="12.5" ry="12.5" style="stroke: #A80036; stroke-width: 1.5;" width="727" x="6" y="108.9531"/><rect fill="#FFFFFF" height="835" rx="12.5" ry="12.5" style="stroke: #FFFFFF; stroke-width: 1.0;" width="721" x="9" y="138.25"/><line style="stroke: #A80036; stroke-width: 1.5;" x1="6" x2="733" y1="135.25" y2="135.25"/><text fill="#000000" font-family="sans-serif" font-size="14" lengthAdjust="spacingAndGlyphs" textLength="48" x="345.5" y="126.9482">Engine</text><rect fill="#FEFECE" filter="url(#f120o8170z4ak6)" height="50.2656" rx="12.5" ry="12.5" style="stroke: #A80036; stroke-width: 1.5;" width="203" x="152.5" y="205.25"/><line style="stroke: #A80036; stroke-width: 1.5;" x1="152.5" x2="355.5" y1="231.5469" y2="231.5469"/><text fill="#000000" font-family="sans-serif" font-size="14" lengthAdjust="spacingAndGlyphs" textLength="123" x="192.5" y="223.2451">CheckingLoopCall</text><text fill="#000000" font-family="sans-serif" font-size="12" lengthAdjust="spacingAndGlyphs" textLength="183" x="157.5" y="247.6855">should not be detected loop.</text><rect fill="#FEFECE" filter="url(#f120o8170z4ak6)" height="50.2656" rx="12.5" ry="12.5" style="stroke: #A80036; stroke-width: 1.5;" width="285" x="250.5" y="498.25"/><line style="stroke: #A80036; stroke-width: 1.5;" x1="250.5" x2="535.5" y1="524.5469" y2="524.5469"/><text fill="#000000" font-family="sans-serif" font-size="14" lengthAdjust="spacingAndGlyphs" textLength="109" x="338.5" y="516.2451">CheckingResult</text><text fill="#000000" font-family="sans-serif" font-size="12" lengthAdjust="spacingAndGlyphs" textLength="265" x="255.5" y="540.6855">Checks result of the finished environment.</text><ellipse cx="486" cy="158.25" fill="#000000" filter="url(#f120o8170z4ak6)" rx="10" ry="10" style="stroke: none; stroke-width: 1.0;"/><rect fill="#FEFECE" filter="url(#f120o8170z4ak6)" height="50" rx="12.5" ry="12.5" style="stroke: #A80036; stroke-width: 1.5;" width="138" x="417" y="205.25"/><line style="stroke: #A80036; stroke-width: 1.5;" x1="417" x2="555" y1="231.5469" y2="231.5469"/><text fill="#000000" font-family="sans-serif" font-size="14" lengthAdjust="spacingAndGlyphs" textLength="118" x="427" y="223.2451">BuildingEnvStack</text><rect fill="#FEFECE" filter="url(#f120o8170z4ak6)" height="50.2656" rx="12.5" ry="12.5" style="stroke: #A80036; stroke-width: 1.5;" width="322" x="325" y="292.25"/><line style="stroke: #A80036; stroke-width: 1.5;" x1="325" x2="647" y1="318.5469" y2="318.5469"/><text fill="#000000" font-family="sans-serif" font-size="14" lengthAdjust="spacingAndGlyphs" textLength="164" x="404" y="310.2451">GeneratingEnvironment</text><text fill="#000000" font-family="sans-serif" font-size="12" lengthAdjust="spacingAndGlyphs" textLength="302" x="330" y="334.6855">Spawns Environment and pushes it to EnvStack.</text><rect fill="#FEFECE" filter="url(#f120o8170z4ak6)" height="50.2656" rx="12.5" ry="12.5" style="stroke: #A80036; stroke-width: 1.5;" width="236" x="90" y="601.25"/><line style="stroke: #A80036; stroke-width: 1.5;" x1="90" x2="326" y1="627.5469" y2="627.5469"/><text fill="#000000" font-family="sans-serif" font-size="14" lengthAdjust="spacingAndGlyphs" textLength="135" x="140.5" y="619.2451">PoppingAllEnvStack</text><text fill="#000000" font-family="sans-serif" font-size="12" lengthAdjust="spacingAndGlyphs" textLength="216" x="95" y="643.6855">Probably this execution was failed.</text><rect fill="#FEFECE" filter="url(#f120o8170z4ak6)" height="50.2656" rx="12.5" ry="12.5" style="stroke: #A80036; stroke-width: 1.5;" width="192" x="344" y="601.25"/><line style="stroke: #A80036; stroke-width: 1.5;" x1="344" x2="536" y1="627.5469" y2="627.5469"/><text fill="#000000" font-family="sans-serif" font-size="14" lengthAdjust="spacingAndGlyphs" textLength="128" x="376" y="619.2451">CheckingEnvStack</text><text fill="#000000" font-family="sans-serif" font-size="12" lengthAdjust="spacingAndGlyphs" textLength="172" x="349" y="643.6855">checks if EnvStack is empty</text><rect fill="#FEFECE" filter="url(#f120o8170z4ak6)" height="64.2344" rx="12.5" ry="12.5" style="stroke: #A80036; stroke-width: 1.5;" width="278" x="422" y="764.25"/><line style="stroke: #A80036; stroke-width: 1.5;" x1="422" x2="700" y1="790.5469" y2="790.5469"/><text fill="#000000" font-family="sans-serif" font-size="14" lengthAdjust="spacingAndGlyphs" textLength="150" x="486" y="782.2451">FinalizingEnvironment</text><text fill="#000000" font-family="sans-serif" font-size="12" lengthAdjust="spacingAndGlyphs" textLength="258" x="427" y="806.6855">pops from data stack on the finished env</text><text fill="#000000" font-family="sans-serif" font-size="12" lengthAdjust="spacingAndGlyphs" textLength="241" x="431" y="820.6543">and pushes them to the resumed env.</text><ellipse cx="210" cy="951.25" fill="none" filter="url(#f120o8170z4ak6)" rx="10" ry="10" style="stroke: #000000; stroke-width: 1.0;"/><ellipse cx="210.5" cy="951.75" fill="#000000" rx="6" ry="6" style="stroke: none; stroke-width: 1.0;"/><rect fill="#808000" filter="url(#f120o8170z4ak6)" height="50" rx="12.5" ry="12.5" style="stroke: #A80036; stroke-width: 1.5;" width="107" x="374.5" y="395.25"/><line style="stroke: #A80036; stroke-width: 1.5;" x1="374.5" x2="481.5" y1="421.5469" y2="421.5469"/><text fill="#000000" font-family="sans-serif" font-size="14" lengthAdjust="spacingAndGlyphs" textLength="87" x="384.5" y="413.2451">Environment</text><rect fill="#FEFECE" filter="url(#f120o8170z4ak6)" height="216.2969" rx="12.5" ry="12.5" style="stroke: #A80036; stroke-width: 1.5;" width="386" x="17" y="688.25"/><rect fill="#FFFFFF" height="184" rx="12.5" ry="12.5" style="stroke: #FFFFFF; stroke-width: 1.0;" width="380" x="20" y="717.5469"/><line style="stroke: #A80036; stroke-width: 1.5;" x1="17" x2="403" y1="714.5469" y2="714.5469"/><text fill="#000000" font-family="sans-serif" font-size="14" lengthAdjust="spacingAndGlyphs" textLength="111" x="154.5" y="706.2451">FinalizingEngine</text><ellipse cx="199" cy="737.5469" fill="#000000" filter="url(#f120o8170z4ak6)" rx="10" ry="10" style="stroke: none; stroke-width: 1.0;"/><rect fill="#FEFECE" filter="url(#f120o8170z4ak6)" height="50" rx="12.5" ry="12.5" style="stroke: #A80036; stroke-width: 1.5;" width="162" x="28" y="783.5469"/><line style="stroke: #A80036; stroke-width: 1.5;" x1="28" x2="190" y1="809.8438" y2="809.8438"/><text fill="#000000" font-family="sans-serif" font-size="14" lengthAdjust="spacingAndGlyphs" textLength="142" x="38" y="801.542">CommittingKeyValue</text><rect fill="#FEFECE" filter="url(#f120o8170z4ak6)" height="50" rx="12.5" ry="12.5" style="stroke: #A80036; stroke-width: 1.5;" width="162" x="208" y="783.5469"/><line style="stroke: #A80036; stroke-width: 1.5;" x1="208" x2="370" y1="809.8438" y2="809.8438"/><text fill="#000000" font-family="sans-serif" font-size="14" lengthAdjust="spacingAndGlyphs" textLength="142" x="218" y="801.542">RollbackingKeyValue</text><ellipse cx="199" cy="879.5469" fill="none" filter="url(#f120o8170z4ak6)" rx="10" ry="10" style="stroke: #000000; stroke-width: 1.0;"/><ellipse cx="199.5" cy="880.0469" fill="#000000" rx="6" ry="6" style="stroke: none; stroke-width: 1.0;"/><!--link *start*FinalizingEngine to CommittingKeyValue--><path d="M191.327,744.4299 C180.981,752.3619 161.869,767.0139 144.663,780.2059 " fill="none" id="*start*FinalizingEngine-CommittingKeyValue" style="stroke: #A80036; stroke-width: 1.0;"/><polygon fill="#A80036" points="140.336,783.5229,149.9126,781.2232,144.3046,780.4814,145.0463,774.8734,140.336,783.5229" style="stroke: #A80036; stroke-width: 1.0;"/><!--link *start*FinalizingEngine to RollbackingKeyValue--><path d="M206.673,744.4299 C217.019,752.3619 236.131,767.0139 253.337,780.2059 " fill="none" id="*start*FinalizingEngine-RollbackingKeyValue" style="stroke: #A80036; stroke-width: 1.0;"/><polygon fill="#A80036" points="257.664,783.5229,252.9537,774.8734,253.6954,780.4814,248.0874,781.2232,257.664,783.5229" style="stroke: #A80036; stroke-width: 1.0;"/><!--link CommittingKeyValue to *end*FinalizingEngine--><path d="M140.478,833.6798 C156.73,846.14 175.577,860.5893 187.396,869.6501 " fill="none" id="CommittingKeyValue-*end*FinalizingEngine" style="stroke: #A80036; stroke-width: 1.0;"/><polygon fill="#A80036" points="191.414,872.7309,186.7063,864.08,187.4463,869.6883,181.8381,870.4283,191.414,872.7309" style="stroke: #A80036; stroke-width: 1.0;"/><!--link RollbackingKeyValue to *end*FinalizingEngine--><path d="M257.522,833.6798 C241.27,846.14 222.423,860.5893 210.604,869.6501 " fill="none" id="RollbackingKeyValue-*end*FinalizingEngine" style="stroke: #A80036; stroke-width: 1.0;"/><polygon fill="#A80036" points="206.586,872.7309,216.1619,870.4283,210.5537,869.6883,211.2937,864.08,206.586,872.7309" style="stroke: #A80036; stroke-width: 1.0;"/><!--link Environment to CheckingLoopCall--><path d="M374.225,408.967 C336.589,398.766 288.624,379.106 263,342.25 C246.514,318.538 246.203,284.706 248.803,260.637 " fill="none" id="Environment-CheckingLoopCall" style="stroke: #A80036; stroke-width: 1.0;"/><polygon fill="#A80036" points="249.398,255.656,244.359,264.1182,248.8051,260.6207,252.3025,265.0668,249.398,255.656" style="stroke: #A80036; stroke-width: 1.0;"/><text fill="#000000" font-family="sans-serif" font-size="13" lengthAdjust="spacingAndGlyphs" textLength="51" x="264" y="321.8169">execute</text><!--link Environment to CheckingResult--><path d="M419.617,445.442 C414.675,459.704 408.387,477.849 403.163,492.922 " fill="none" id="Environment-CheckingResult" style="stroke: #A80036; stroke-width: 1.0;"/><polygon fill="#A80036" points="401.436,497.905,408.1624,490.7109,403.0732,493.1806,400.6034,488.0914,401.436,497.905" style="stroke: #A80036; stroke-width: 1.0;"/><text fill="#000000" font-family="sans-serif" font-size="13" lengthAdjust="spacingAndGlyphs" textLength="33" x="413" y="476.3169">finish</text><!--link *start*Engine to BuildingEnvStack--><path d="M486,168.401 C486,176.436 486,188.576 486,199.904 " fill="none" id="*start*Engine-BuildingEnvStack" style="stroke: #A80036; stroke-width: 1.0;"/><polygon fill="#A80036" points="486,205.034,490,196.034,486,200.034,482,196.034,486,205.034" style="stroke: #A80036; stroke-width: 1.0;"/><!--link BuildingEnvStack to GeneratingEnvironment--><path d="M486,255.38 C486,265.16 486,276.548 486,286.81 " fill="none" id="BuildingEnvStack-GeneratingEnvironment" style="stroke: #A80036; stroke-width: 1.0;"/><polygon fill="#A80036" points="486,292.059,490,283.059,486,287.059,482,283.059,486,292.059" style="stroke: #A80036; stroke-width: 1.0;"/><!--link GeneratingEnvironment to Environment--><path d="M472.108,342.442 C463.847,356.828 453.316,375.165 444.617,390.314 " fill="none" id="GeneratingEnvironment-Environment" style="stroke: #A80036; stroke-width: 1.0;"/><polygon fill="#A80036" points="441.98,394.905,449.9308,389.0925,444.4701,390.5692,442.9935,385.1084,441.98,394.905" style="stroke: #A80036; stroke-width: 1.0;"/><text fill="#000000" font-family="sans-serif" font-size="13" lengthAdjust="spacingAndGlyphs" textLength="30" x="461" y="373.3169">start</text><!--link CheckingLoopCall to GeneratingEnvironment--><path d="M319.552,255.267 C349.441,266.218 384.881,279.202 415.361,290.369 " fill="none" id="CheckingLoopCall-GeneratingEnvironment" style="stroke: #A80036; stroke-width: 1.0;"/><polygon fill="#A80036" points="420.208,292.145,413.1354,285.2909,415.5137,290.4236,410.3811,292.8019,420.208,292.145" style="stroke: #A80036; stroke-width: 1.0;"/><!--link CheckingLoopCall to PoppingAllEnvStack--><path d="M232.616,255.445 C220.603,271.531 208,293.766 208,316.25 C208,316.25 208,316.25 208,524.25 C208,548.394 208,575.786 208,595.946 " fill="none" id="CheckingLoopCall-PoppingAllEnvStack" style="stroke: #A80036; stroke-width: 1.0;"/><polygon fill="#A80036" points="208,601.17,212,592.17,208,596.17,204,592.17,208,601.17" style="stroke: #A80036; stroke-width: 1.0;"/><!--link CheckingEnvStack to FinalizingEngine--><path d="M407.047,651.32 C394.107,660.772 378.276,672.335 361.266,684.76 " fill="none" id="CheckingEnvStack-FinalizingEngine" style="stroke: #A80036; stroke-width: 1.0;"/><polygon fill="#A80036" points="356.916,687.937,366.5431,685.859,360.9537,684.988,361.8247,679.3986,356.916,687.937" style="stroke: #A80036; stroke-width: 1.0;"/><!--link CheckingEnvStack to FinalizingEnvironment--><path d="M457.336,651.32 C477.787,679.714 511.966,727.17 535.451,759.777 " fill="none" id="CheckingEnvStack-FinalizingEnvironment" style="stroke: #A80036; stroke-width: 1.0;"/><polygon fill="#A80036" points="538.548,764.076,536.5327,754.4355,535.6253,760.0191,530.0417,759.1118,538.548,764.076" style="stroke: #A80036; stroke-width: 1.0;"/><!--link CheckingResult to PoppingAllEnvStack--><path d="M348.688,548.442 C320.987,563.565 285.288,583.055 256.782,598.618 " fill="none" id="CheckingResult-PoppingAllEnvStack" style="stroke: #A80036; stroke-width: 1.0;"/><polygon fill="#A80036" points="252.271,601.081,262.0872,600.2796,256.6597,598.6852,258.254,593.2577,252.271,601.081" style="stroke: #A80036; stroke-width: 1.0;"/><!--link CheckingResult to CheckingEnvStack--><path d="M404.258,548.442 C410.952,562.828 419.485,581.165 426.535,596.314 " fill="none" id="CheckingResult-CheckingEnvStack" style="stroke: #A80036; stroke-width: 1.0;"/><polygon fill="#A80036" points="428.671,600.905,428.5018,591.0576,426.5621,596.3715,421.2482,594.4318,428.671,600.905" style="stroke: #A80036; stroke-width: 1.0;"/><!--link FinalizingEnvironment to Environment--><path d="M567.928,764.073 C578.848,707.009 594.115,583.778 545,498.25 C531.774,475.219 508.538,457.824 486.239,445.449 " fill="none" id="FinalizingEnvironment-Environment" style="stroke: #A80036; stroke-width: 1.0;"/><polygon fill="#A80036" points="481.795,443.04,487.801,450.8457,486.1907,445.4228,491.6135,443.8126,481.795,443.04" style="stroke: #A80036; stroke-width: 1.0;"/><text fill="#000000" font-family="sans-serif" font-size="13" lengthAdjust="spacingAndGlyphs" textLength="49" x="574" y="579.3169">resume</text><!--link PoppingAllEnvStack to FinalizingEngine--><path d="M208.287,651.32 C208.393,660.291 208.523,671.165 208.662,682.872 " fill="none" id="PoppingAllEnvStack-FinalizingEngine" style="stroke: #A80036; stroke-width: 1.0;"/><polygon fill="#A80036" points="208.722,687.937,212.6163,678.8908,208.6634,682.9373,204.6169,678.9845,208.722,687.937" style="stroke: #A80036; stroke-width: 1.0;"/><!--link FinalizingEngine to *end*Engine--><path d="M210,904.345 C210,916.7495 210,927.8692 210,936.0567 " fill="none" id="FinalizingEngine-*end*Engine" style="stroke: #A80036; stroke-width: 1.0;"/><polygon fill="#A80036" points="210,941.2363,214,932.2363,210,936.2363,206,932.2363,210,941.2363" style="stroke: #A80036; stroke-width: 1.0;"/><!--link *start to Engine--><path d="M369.5,49.0831 C369.5,59.6641 369.5,78.8771 369.5,103.7801 " fill="none" id="*start-Engine" style="stroke: #A80036; stroke-width: 1.0;"/><polygon fill="#A80036" points="369.5,108.8361,373.5,99.8361,369.5,103.8361,365.5,99.8361,369.5,108.8361" style="stroke: #A80036; stroke-width: 1.0;"/><!--link Engine to *end--><path d="M369.5,976.0109 C369.5,999.7632 369.5,1018.809 369.5,1030.8127 " fill="none" id="Engine-*end" style="stroke: #A80036; stroke-width: 1.0;"/><polygon fill="#A80036" points="369.5,1035.8239,373.5,1026.8239,369.5,1030.8239,365.5,1026.8239,369.5,1035.8239" style="stroke: #A80036; stroke-width: 1.0;"/></g></svg>